<?xml version="1.0" encoding="utf-8"?>
<!-- Generator: Adobe Illustrator 16.0.0, SVG Export Plug-In . SVG Version: 6.00 Build 0)  -->
<!DOCTYPE svg PUBLIC "-//W3C//DTD SVG 1.1//EN" "http://www.w3.org/Graphics/SVG/1.1/DTD/svg11.dtd">
<svg version="1.1" id="Layer_1" xmlns="http://www.w3.org/2000/svg" xmlns:xlink="http://www.w3.org/1999/xlink" x="0px" y="0px"
	 width="260px" height="31.5px" viewBox="0 0 260 31.5" enable-background="new 0 0 260 31.5" xml:space="preserve">
<g id="Layer_2">
</g>
<g>
	<path fill="#FFFFFF" stroke="#FFFFFF" stroke-width="0.25" stroke-miterlimit="10" d="M129.659,12.426
		c0.82,0,1.455,0.247,1.904,0.742s0.673,1.177,0.673,2.047c0,0.898-0.162,1.737-0.488,2.519c-0.326,0.781-0.771,1.377-1.336,1.787
		s-1.217,0.615-1.955,0.615c-0.838,0-1.476-0.249-1.911-0.748s-0.653-1.213-0.653-2.143c0-0.871,0.167-1.686,0.499-2.447
		s0.782-1.347,1.347-1.757S128.943,12.426,129.659,12.426z M129.604,13.014c-0.565,0-1.073,0.179-1.524,0.537
		s-0.811,0.871-1.08,1.538s-0.403,1.375-0.403,2.123c0,1.558,0.643,2.337,1.928,2.337c0.579,0,1.093-0.176,1.542-0.529
		s0.807-0.873,1.073-1.559c0.267-0.686,0.399-1.439,0.399-2.259c0-0.702-0.166-1.242-0.498-1.62
		C130.707,13.203,130.229,13.014,129.604,13.014z"/>
	<path fill="#FFFFFF" stroke="#FFFFFF" stroke-width="0.25" stroke-miterlimit="10" d="M137.779,12.44
		c0.314,0,0.595,0.032,0.841,0.096l-0.144,0.636c-0.214-0.068-0.472-0.103-0.772-0.103c-0.429,0-0.836,0.146-1.224,0.438
		s-0.736,0.729-1.046,1.313s-0.538,1.214-0.684,1.894L134.067,20h-0.67l1.579-7.43h0.547l-0.198,1.395h0.041
		c0.333-0.428,0.613-0.737,0.841-0.926s0.471-0.336,0.728-0.441C137.192,12.492,137.474,12.44,137.779,12.44z"/>
</g>
<path fill="none" stroke="#039BE5" stroke-miterlimit="10" d="M110.667,17H0"/>
<path fill="none" stroke="#81D4FA" stroke-miterlimit="10" d="M149,17h110.667"/>
</svg>
