<?xml version="1.0" encoding="utf-8"?>
<!-- Generator: Adobe Illustrator 16.0.0, SVG Export Plug-In . SVG Version: 6.00 Build 0)  -->
<!DOCTYPE svg PUBLIC "-//W3C//DTD SVG 1.1//EN" "http://www.w3.org/Graphics/SVG/1.1/DTD/svg11.dtd">
<svg version="1.1" id="Layer_1" xmlns="http://www.w3.org/2000/svg" xmlns:xlink="http://www.w3.org/1999/xlink" x="0px" y="0px"
	 width="185px" height="100px" viewBox="0 0 185 100" enable-background="new 0 0 185 100" xml:space="preserve">
<path fill="none" stroke="#2EAEDB" stroke-width="2" stroke-miterlimit="10" d="M79.5,37c0,16.845-13.655,30.5-30.5,30.5
	S18.5,53.845,18.5,37S32.155,6.5,49,6.5S79.5,20.155,79.5,37z"/>
<path fill="none" stroke="#2EAEDB" stroke-width="2" stroke-miterlimit="10" d="M59.803,65.522L49,26.5h-1.75L35.861,64.531"/>
<path fill="none" stroke="#2EAEDB" stroke-width="2" stroke-miterlimit="10" d="M53.493,6.823L66,53l9.397-31.287"/>
<path fill="none" stroke="#2EAEDB" stroke-width="2" stroke-miterlimit="10" d="M21.056,24.762L28.875,54L42.486,7.198"/>
<path fill="none" stroke="#2EAEDB" stroke-width="2" stroke-linecap="round" stroke-miterlimit="10" d="M91.75,2v76.075L49,91.5"/>
<path fill="none" stroke="#2EAEDB" stroke-width="2" stroke-linecap="round" stroke-miterlimit="10" d="M49,91L2,75.835V2.219"/>
<path fill="none" stroke="#2EAEDB" stroke-width="2" stroke-linecap="round" stroke-miterlimit="10" d="M2,2h89.75"/>
<path fill="none" stroke="#2EAEDB" stroke-width="2" stroke-miterlimit="10" d="M180.334,49.5c0,2.209-1.791,4-4,4h-68.667
	c-2.209,0-4-1.791-4-4v-13c0-2.209,1.791-4,4-4h68.667c2.209,0,4,1.791,4,4V49.5z"/>
</svg>
