<?xml version="1.0" encoding="utf-8"?>
<!-- Generator: Adobe Illustrator 16.0.0, SVG Export Plug-In . SVG Version: 6.00 Build 0)  -->
<!DOCTYPE svg PUBLIC "-//W3C//DTD SVG 1.1//EN" "http://www.w3.org/Graphics/SVG/1.1/DTD/svg11.dtd">
<svg version="1.1" id="Layer_1" xmlns="http://www.w3.org/2000/svg" xmlns:xlink="http://www.w3.org/1999/xlink" x="0px" y="0px"
	 width="290px" height="22px" viewBox="0 0 290 22" enable-background="new 0 0 290 22" xml:space="preserve">
<path fill="none" stroke="#039BE5" stroke-width="2" stroke-miterlimit="10" d="M6.048,20c-2.209,0-4-1.791-4-4V6.502
	c0-2.209,1.791-4,4-4"/>
<path fill="none" stroke="#039BE5" stroke-width="2" stroke-miterlimit="10" d="M200.334,2.502H284c2.209,0,4,1.791,4,4V16
	c0,2.209-1.791,4-4,4h-61"/>
<path fill="none" stroke="#039BE5" stroke-width="2" stroke-miterlimit="10" d="M6.048,2.502h61.285h133"/>
<path fill="none" stroke="#039BE5" stroke-width="2" stroke-miterlimit="10" d="M223,20H94.333H6.048"/>
<path display="none" fill="none" stroke="#039BE5" stroke-width="2" stroke-miterlimit="10" d="M288,16c0,2.209-1.791,4-4,4H6.048
	c-2.209,0-4-1.791-4-4V6.502c0-2.209,1.791-4,4-4H284c2.209,0,4,1.791,4,4V16z"/>
</svg>
