<?xml version="1.0" encoding="utf-8"?>
<!-- Generator: Adobe Illustrator 16.0.0, SVG Export Plug-In . SVG Version: 6.00 Build 0)  -->
<!DOCTYPE svg PUBLIC "-//W3C//DTD SVG 1.1//EN" "http://www.w3.org/Graphics/SVG/1.1/DTD/svg11.dtd">
<svg version="1.1" xmlns="http://www.w3.org/2000/svg" xmlns:xlink="http://www.w3.org/1999/xlink" x="0px" y="0px"
	 width="773.961px" height="853.938px" viewBox="0 0 773.961 853.938" enable-background="new 0 0 773.961 853.938"
	 xml:space="preserve">
<g id="Layer_1">
</g>
<g id="Layer_6">
	<linearGradient id="SVGID_1_" gradientUnits="userSpaceOnUse" x1="196.4878" y1="434.1777" x2="560.4702" y2="434.1777">
		<stop  offset="0" style="stop-color:#8C7D8B"/>
		<stop  offset="1" style="stop-color:#E5D1CD"/>
	</linearGradient>
	<path fill="none" stroke="url(#SVGID_1_)" stroke-miterlimit="10" d="M559.97,434.178c0,100.234-81.257,181.491-181.491,181.491
		c-100.235,0-181.491-81.257-181.491-181.491c0-100.235,81.256-181.492,181.491-181.492
		C478.713,252.686,559.97,333.942,559.97,434.178z"/>
	<linearGradient id="SVGID_2_" gradientUnits="userSpaceOnUse" x1="209.9868" y1="434.1777" x2="546.9712" y2="434.1777">
		<stop  offset="0" style="stop-color:#8C7D8B"/>
		<stop  offset="1" style="stop-color:#E5D1CD"/>
	</linearGradient>
	<circle fill="none" stroke="url(#SVGID_2_)" stroke-miterlimit="10" cx="378.479" cy="434.178" r="167.992"/>
	<linearGradient id="SVGID_3_" gradientUnits="userSpaceOnUse" x1="181.4878" y1="434.1777" x2="575.4702" y2="434.1777">
		<stop  offset="0" style="stop-color:#8C7D8B"/>
		<stop  offset="1" style="stop-color:#E5D1CD"/>
	</linearGradient>
	<path fill="none" stroke="url(#SVGID_3_)" stroke-miterlimit="10" d="M574.97,434.178c0,108.519-87.973,196.491-196.491,196.491
		c-108.52,0-196.491-87.973-196.491-196.491c0-108.52,87.972-196.492,196.491-196.492
		C486.998,237.686,574.97,325.658,574.97,434.178z"/>
	<linearGradient id="SVGID_4_" gradientUnits="userSpaceOnUse" x1="167.4878" y1="434.1777" x2="589.4702" y2="434.1777">
		<stop  offset="0" style="stop-color:#8C7D8B"/>
		<stop  offset="1" style="stop-color:#E5D1CD"/>
	</linearGradient>
	<path fill="none" stroke="url(#SVGID_4_)" stroke-miterlimit="10" d="M588.97,434.178c0,116.25-94.241,210.491-210.491,210.491
		c-116.251,0-210.491-94.241-210.491-210.491c0-116.252,94.24-210.492,210.491-210.492
		C494.729,223.686,588.97,317.926,588.97,434.178z"/>
	<linearGradient id="SVGID_5_" gradientUnits="userSpaceOnUse" x1="151.4878" y1="434.1777" x2="605.4702" y2="434.1777">
		<stop  offset="0" style="stop-color:#8C7D8B"/>
		<stop  offset="1" style="stop-color:#E5D1CD"/>
	</linearGradient>
	<path fill="none" stroke="url(#SVGID_5_)" stroke-miterlimit="10" d="M604.97,434.178c0,125.087-101.404,226.491-226.491,226.491
		c-125.088,0-226.491-101.404-226.491-226.491c0-125.088,101.403-226.492,226.491-226.492
		C503.566,207.686,604.97,309.089,604.97,434.178z"/>
	<linearGradient id="SVGID_6_" gradientUnits="userSpaceOnUse" x1="135.4878" y1="434.1777" x2="621.4702" y2="434.1777">
		<stop  offset="0" style="stop-color:#8C7D8B"/>
		<stop  offset="1" style="stop-color:#E5D1CD"/>
	</linearGradient>
	<path fill="none" stroke="url(#SVGID_6_)" stroke-miterlimit="10" d="M620.97,434.178c0,133.924-108.567,242.491-242.491,242.491
		c-133.924,0-242.491-108.567-242.491-242.491c0-133.925,108.567-242.492,242.491-242.492
		C512.403,191.686,620.97,300.253,620.97,434.178z"/>
	<linearGradient id="SVGID_7_" gradientUnits="userSpaceOnUse" x1="118.4878" y1="434.1777" x2="638.4702" y2="434.1777">
		<stop  offset="0" style="stop-color:#8C7D8B"/>
		<stop  offset="1" style="stop-color:#E5D1CD"/>
	</linearGradient>
	<path fill="none" stroke="url(#SVGID_7_)" stroke-miterlimit="10" d="M637.97,434.178c0,143.313-116.179,259.491-259.491,259.491
		c-143.313,0-259.491-116.179-259.491-259.491c0-143.313,116.178-259.492,259.491-259.492
		C521.792,174.686,637.97,290.864,637.97,434.178z"/>
	<linearGradient id="SVGID_8_" gradientUnits="userSpaceOnUse" x1="100.4878" y1="434.1777" x2="656.4702" y2="434.1777">
		<stop  offset="0" style="stop-color:#8C7D8B"/>
		<stop  offset="1" style="stop-color:#E5D1CD"/>
	</linearGradient>
	<path fill="none" stroke="url(#SVGID_8_)" stroke-miterlimit="10" d="M655.97,434.178c0,153.254-124.237,277.491-277.491,277.491
		S100.988,587.432,100.988,434.178c0-153.254,124.237-277.492,277.491-277.492S655.97,280.923,655.97,434.178z"/>
	<linearGradient id="SVGID_9_" gradientUnits="userSpaceOnUse" x1="209.9868" y1="434.1777" x2="546.9712" y2="434.1777">
		<stop  offset="0" style="stop-color:#8C7D8B"/>
		<stop  offset="1" style="stop-color:#E5D1CD"/>
	</linearGradient>
	<path fill="none" stroke="url(#SVGID_9_)" stroke-miterlimit="10" d="M546.471,434.178c0,92.779-75.213,167.992-167.992,167.992
		c-92.78,0-167.992-75.213-167.992-167.992c0-92.78,75.212-167.993,167.992-167.993
		C471.258,266.185,546.471,341.397,546.471,434.178z"/>
</g>
<g id="actual">
	<path fill="#FFFFFF" stroke="#494949" stroke-width="2" stroke-miterlimit="10" d="M125.157,218.444
		c0,0-8.325-28.638,18.981-42.291l220.447-89.578c0,0,32.967-9.325,48.285,26.64c15.319,35.963,213.456,513.155,213.456,513.155
		s15.984,34.3-18.649,52.282l-212.786,90.909c0,0-28.973,10.655-46.289-16.65L125.157,218.444z"/>
	<path fill="#FFF0D8" stroke="#494949" stroke-miterlimit="10" d="M126.588,219.638c0,0-8.278-28.477,18.874-42.051l219.194-89.069
		c0,0,32.779-9.272,48.011,26.488c15.231,35.76,212.243,510.24,212.243,510.24s15.894,34.106-18.542,51.986L394.79,767.625
		c0,0-28.809,10.595-46.026-16.555L126.588,219.638z"/>
	<linearGradient id="SVGID_10_" gradientUnits="userSpaceOnUse" x1="129.2339" y1="427.3223" x2="622.7896" y2="427.3223">
		<stop  offset="0" style="stop-color:#FFF9ED"/>
		<stop  offset="1" style="stop-color:#F5E9DE"/>
	</linearGradient>
	<linearGradient id="SVGID_11_" gradientUnits="userSpaceOnUse" x1="128.7339" y1="427.3223" x2="623.2896" y2="427.3223">
		<stop  offset="0" style="stop-color:#8C7D8B"/>
		<stop  offset="1" style="stop-color:#E5D1CD"/>
	</linearGradient>
	<path fill="url(#SVGID_10_)" stroke="url(#SVGID_11_)" stroke-miterlimit="10" d="M130.399,222.403c0,0-8.12-27.932,18.513-41.248
		l215.005-87.366c0,0,32.153-9.094,47.092,25.982c14.941,35.077,208.188,500.49,208.188,500.49s15.589,33.452-18.189,50.991
		l-207.535,88.665c0,0-28.256,10.392-45.145-16.239L130.399,222.403z"/>
	<linearGradient id="SVGID_12_" gradientUnits="userSpaceOnUse" x1="129.2339" y1="427.3223" x2="622.7896" y2="427.3223">
		<stop  offset="0" style="stop-color:#FFF9ED"/>
		<stop  offset="1" style="stop-color:#F5E9DE"/>
	</linearGradient>
	<linearGradient id="SVGID_13_" gradientUnits="userSpaceOnUse" x1="128.7339" y1="427.3223" x2="623.2896" y2="427.3223">
		<stop  offset="0" style="stop-color:#8C7D8B"/>
		<stop  offset="1" style="stop-color:#E5D1CD"/>
	</linearGradient>
	<path fill="url(#SVGID_12_)" stroke="url(#SVGID_13_)" stroke-miterlimit="10" d="M130.399,222.403c0,0-8.12-27.932,18.513-41.248
		l215.005-87.366c0,0,32.153-9.094,47.092,25.982c14.941,35.077,208.188,500.49,208.188,500.49s15.589,33.452-18.189,50.991
		l-207.535,88.665c0,0-28.256,10.392-45.145-16.239L130.399,222.403z"/>
	<g>
		<path fill="#FBF5EB" d="M149.037,185.25l213.992-85.928c0,0,32.001-8.944,46.87,25.555
			c12.366,28.688,147.442,350.041,192.598,457.487c-46.4-111.727-180.104-433.608-192.433-462.549
			c-14.939-35.076-47.092-25.982-47.092-25.982l-215.005,87.366c-26.633,13.316-18.513,41.248-18.513,41.248l0.82,1.963
			C129.06,218.657,126.104,196.581,149.037,185.25z"/>
		<path fill="#FBF5EB" d="M618.544,620.985c2.896,9.19,7.065,32.644-19.542,46.296l-206.557,87.206c0,0-28.124,10.221-44.932-15.973
			L151.951,276.259l195.432,467.463c16.888,26.631,45.145,16.239,45.145,16.239l207.535-88.665
			C631.01,655.227,620.52,625.805,618.544,620.985z"/>
		<path fill="#FBF5EB" d="M618.544,620.985c-0.764-2.422-1.438-3.856-1.438-3.856s-5.463-13.001-14.609-34.766
			c9.837,23.688,15.756,37.941,15.756,37.941S618.364,620.545,618.544,620.985z"/>
		<path fill="#FBF5EB" d="M130.612,225.819l21.339,50.44l-21.677-51.85C130.463,225.306,130.612,225.819,130.612,225.819z"/>
	</g>
	<path fill="none" stroke="#494949" stroke-miterlimit="10" d="M270.379,147.865c0,3.587-2.908,6.496-6.496,6.496
		c-3.587,0-6.495-2.908-6.495-6.496c0-3.587,2.908-6.495,6.495-6.495C267.472,141.37,270.379,144.278,270.379,147.865z"/>
	<path fill="none" stroke="#494949" stroke-miterlimit="10" d="M268.614,147.865c0,2.612-2.117,4.73-4.73,4.73
		c-2.611,0-4.729-2.118-4.729-4.73c0-2.612,2.118-4.729,4.729-4.729C266.497,143.136,268.614,145.253,268.614,147.865z"/>
	<path fill="none" stroke="#494949" stroke-miterlimit="10" d="M237.09,184.89c0,1.705-1.381,3.085-3.085,3.085
		s-3.085-1.38-3.085-3.085c0-1.704,1.381-3.084,3.085-3.084S237.09,183.187,237.09,184.89z"/>
	<path fill="none" stroke="#494949" stroke-miterlimit="10" d="M235.469,184.89c0,0.81-0.655,1.465-1.464,1.465
		c-0.809,0-1.464-0.655-1.464-1.465c0-0.809,0.655-1.464,1.464-1.464C234.814,183.426,235.469,184.082,235.469,184.89z"/>
	<path fill="none" stroke="#494949" stroke-miterlimit="10" d="M293.639,161.743c0.137,0.333-0.021,0.711-0.354,0.848l-41.908,17.22
		c-0.331,0.137-0.711-0.022-0.847-0.354l0,0c-0.136-0.333,0.022-0.711,0.354-0.848l41.907-17.22
		C293.124,161.252,293.503,161.412,293.639,161.743L293.639,161.743z"/>
	<linearGradient id="SVGID_14_" gradientUnits="userSpaceOnUse" x1="468.0815" y1="653.0215" x2="501.4139" y2="715.3533">
		<stop  offset="0" style="stop-color:#605252"/>
		<stop  offset="0.3448" style="stop-color:#605252"/>
		<stop  offset="0.4304" style="stop-color:#635555"/>
		<stop  offset="0.4969" style="stop-color:#6C5F5D"/>
		<stop  offset="0.557" style="stop-color:#7B6F6C"/>
		<stop  offset="0.6133" style="stop-color:#908780"/>
		<stop  offset="0.667" style="stop-color:#ACA59A"/>
		<stop  offset="0.7187" style="stop-color:#CECABA"/>
		<stop  offset="0.7679" style="stop-color:#F6F5DF"/>
		<stop  offset="0.7783" style="stop-color:#FFFFE8"/>
		<stop  offset="0.8389" style="stop-color:#FFFFE6"/>
		<stop  offset="0.8607" style="stop-color:#FFFDDF"/>
		<stop  offset="0.8762" style="stop-color:#FFFAD4"/>
		<stop  offset="0.8867" style="stop-color:#FFF6C6"/>
		<stop  offset="0.9248" style="stop-color:#FFF8D6"/>
		<stop  offset="0.9984" style="stop-color:#FFFFFE"/>
		<stop  offset="1" style="stop-color:#FFFFFF"/>
	</linearGradient>
	<path fill="url(#SVGID_14_)" stroke="#494949" stroke-miterlimit="10" d="M511.368,685.381c0,14.349-11.633,25.982-25.982,25.982
		s-25.983-11.634-25.983-25.982c0-14.351,11.634-25.984,25.983-25.984S511.368,671.03,511.368,685.381z"/>
	<linearGradient id="SVGID_15_" gradientUnits="userSpaceOnUse" x1="462.7993" y1="685.3809" x2="507.9702" y2="685.3809">
		<stop  offset="0" style="stop-color:#B8AA72"/>
		<stop  offset="1" style="stop-color:#A1846E"/>
	</linearGradient>
	<path fill="#FFF0D8" stroke="url(#SVGID_15_)" stroke-miterlimit="10" d="M507.47,685.381c0,12.197-9.888,22.085-22.085,22.085
		s-22.086-9.888-22.086-22.085s9.889-22.086,22.086-22.086S507.47,673.184,507.47,685.381z"/>
	<linearGradient id="SVGID_16_" gradientUnits="userSpaceOnUse" x1="457.4399" y1="685.3799" x2="513.3296" y2="685.3799">
		<stop  offset="0" style="stop-color:#E0D2C7"/>
		<stop  offset="1" style="stop-color:#F5E9DE"/>
	</linearGradient>
	<path fill="none" stroke="url(#SVGID_16_)" stroke-miterlimit="10" d="M512.83,685.381c0,15.156-12.288,27.443-27.444,27.443
		c-15.157,0-27.445-12.287-27.445-27.443c0-15.157,12.288-27.445,27.445-27.445C500.542,657.936,512.83,670.224,512.83,685.381z"/>
	<linearGradient id="SVGID_17_" gradientUnits="userSpaceOnUse" x1="449.9312" y1="217.2041" x2="470.1304" y2="217.2041">
		<stop  offset="0" style="stop-color:#FFF9ED"/>
		<stop  offset="1" style="stop-color:#F5E9DE"/>
	</linearGradient>
	<linearGradient id="SVGID_18_" gradientUnits="userSpaceOnUse" x1="449.2778" y1="217.2041" x2="470.7837" y2="217.2041">
		<stop  offset="0" style="stop-color:#8C7D8B"/>
		<stop  offset="1" style="stop-color:#E5D1CD"/>
	</linearGradient>
	<polygon fill="url(#SVGID_17_)" stroke="url(#SVGID_18_)" stroke-miterlimit="10" points="470.13,237.21 467.049,238.488 
		449.931,197.197 453.012,195.92 	"/>
	<path fill="none" stroke="#494949" stroke-miterlimit="10" d="M137.188,238.641l-2.586,2.395l-1.727-4.181l2.531-2.526
		L137.188,238.641z"/>
	<linearGradient id="SVGID_19_" gradientUnits="userSpaceOnUse" x1="162.0903" y1="337.2944" x2="179.9023" y2="337.2944">
		<stop  offset="0" style="stop-color:#FFF9ED"/>
		<stop  offset="1" style="stop-color:#F5E9DE"/>
	</linearGradient>
	<linearGradient id="SVGID_20_" gradientUnits="userSpaceOnUse" x1="161.5903" y1="337.2944" x2="180.4023" y2="337.2944">
		<stop  offset="0" style="stop-color:#8C7D8B"/>
		<stop  offset="1" style="stop-color:#E5D1CD"/>
	</linearGradient>
	<path fill="url(#SVGID_19_)" stroke="url(#SVGID_20_)" stroke-miterlimit="10" d="M179.759,353.429
		c0.391,0.93-0.046,2.001-0.977,2.392l0,0c-0.93,0.391-2.001-0.046-2.393-0.976l-14.157-33.685
		c-0.391-0.931,0.046-2.001,0.977-2.393l0,0c0.93-0.391,2.001,0.047,2.392,0.976L179.759,353.429z"/>
	<linearGradient id="SVGID_21_" gradientUnits="userSpaceOnUse" x1="138.9761" y1="276.6816" x2="152.4238" y2="276.6816">
		<stop  offset="0" style="stop-color:#FFF9ED"/>
		<stop  offset="1" style="stop-color:#F5E9DE"/>
	</linearGradient>
	<linearGradient id="SVGID_22_" gradientUnits="userSpaceOnUse" x1="138.4761" y1="276.6816" x2="152.9238" y2="276.6816">
		<stop  offset="0" style="stop-color:#8C7D8B"/>
		<stop  offset="1" style="stop-color:#E5D1CD"/>
	</linearGradient>
	<path fill="url(#SVGID_21_)" stroke="url(#SVGID_22_)" stroke-miterlimit="10" d="M152.281,287.754
		c0.391,0.93-0.046,2.001-0.977,2.392l0,0c-0.93,0.391-2.001-0.046-2.393-0.976l-9.792-23.561c-0.391-0.931,0.046-2.001,0.977-2.393
		l0,0c0.93-0.391,2.001,0.047,2.392,0.976L152.281,287.754z"/>
	<linearGradient id="SVGID_23_" gradientUnits="userSpaceOnUse" x1="184.7441" y1="390.6401" x2="202.5562" y2="390.6401">
		<stop  offset="0" style="stop-color:#FFF9ED"/>
		<stop  offset="1" style="stop-color:#F5E9DE"/>
	</linearGradient>
	<linearGradient id="SVGID_24_" gradientUnits="userSpaceOnUse" x1="184.2441" y1="390.6401" x2="203.0562" y2="390.6401">
		<stop  offset="0" style="stop-color:#8C7D8B"/>
		<stop  offset="1" style="stop-color:#E5D1CD"/>
	</linearGradient>
	<path fill="url(#SVGID_23_)" stroke="url(#SVGID_24_)" stroke-miterlimit="10" d="M202.413,406.774
		c0.392,0.931-0.046,2.001-0.976,2.392l0,0c-0.931,0.391-2.001-0.045-2.393-0.976l-14.157-33.684
		c-0.391-0.931,0.046-2.001,0.977-2.392l0,0c0.93-0.391,2,0.046,2.392,0.977L202.413,406.774z"/>
	<path fill="none" stroke="#494949" stroke-miterlimit="10" d="M412.81,124.026l3.187-1.123l1.638,3.903l-3.178,1.138
		L412.81,124.026z"/>
	<path fill="none" stroke="#494949" stroke-miterlimit="10" d="M342.507,729.754l-1.984,1.605l-2.688-6.429l2.014-1.536
		L342.507,729.754z"/>
	<radialGradient id="XMLID_4_" cx="370.3911" cy="409.5879" r="192.3538" gradientUnits="userSpaceOnUse">
		<stop  offset="0" style="stop-color:#F4F4F4"/>
		<stop  offset="1" style="stop-color:#D8D8D8"/>
	</radialGradient>
	<linearGradient id="XMLID_5_" gradientUnits="userSpaceOnUse" x1="148.2554" y1="427.4258" x2="604.5864" y2="427.4258">
		<stop  offset="0" style="stop-color:#D3D3D3"/>
		<stop  offset="1" style="stop-color:#E5D1CD"/>
	</linearGradient>
	<path id="XMLID_1_" fill="url(#XMLID_4_)" stroke="url(#XMLID_5_)" stroke-miterlimit="10" d="M148.912,249.685l265.021-106.204
		l190,457.619L340.858,711.363L236.565,460.512L148.912,249.685z"/>
	<path id="XMLID_2_" fill="#494949" d="M569.237,516.981l34.696,84.118L340.858,711.363l-33.549-80.694L569.237,516.981z"/>
	<path fill="none" stroke="#494949" stroke-miterlimit="10" d="M613.831,607.334h3.642l2.465,5.936l-3.57,0.178L613.831,607.334z"/>
	<path fill="none" stroke="#494949" stroke-miterlimit="10" d="M169.555,261.832l-1.369,0.526l-1.155-3.004l1.369-0.526
		L169.555,261.832z"/>
	<path fill="none" stroke="#494949" stroke-miterlimit="10" d="M165.774,263.284l-1.37,0.526l-0.747-1.943l1.37-0.526
		L165.774,263.284z"/>
	<path fill="none" stroke="#494949" stroke-miterlimit="10" d="M173.336,260.378l-1.37,0.526l-2.139-5.566l1.369-0.526
		L173.336,260.378z"/>
	
		<rect x="174.069" y="250.405" transform="matrix(0.9334 -0.3588 0.3588 0.9334 -79.8445 79.7073)" fill="none" stroke="#494949" stroke-miterlimit="10" width="1.467" height="9.086"/>
	
		<rect x="177.375" y="246.39" transform="matrix(0.9334 -0.3588 0.3588 0.9334 -78.6591 80.7145)" fill="none" stroke="#494949" stroke-miterlimit="10" width="1.467" height="11.736"/>
	<g>
		<path fill="#494949" d="M277.733,217.611c-1.438,0.501-2.893-0.504-3.764-2.932c-0.864-2.48-0.256-4.203,1.238-4.724
			c1.54-0.537,2.917,0.535,3.733,2.878c0.871,2.504,0.412,4.212-1.196,4.772L277.733,217.611z M277.51,216.825
			c1.009-0.351,1.082-1.71,0.427-3.59c-0.631-1.812-1.498-2.844-2.54-2.481c-0.906,0.315-1.093,1.676-0.45,3.522
			c0.644,1.922,1.634,2.872,2.552,2.553L277.51,216.825z"/>
		<path fill="#494949" d="M283.375,207.251l0.229,0.657l-0.871,7.821l-1.019,0.355l0.915-7.621l-0.008-0.023l-3.602,1.254
			l-0.287-0.827L283.375,207.251z"/>
		<path fill="#494949" d="M287.752,214.123c-0.385,0.134-0.764-0.077-0.902-0.474c-0.146-0.419,0.035-0.812,0.42-0.946
			c0.408-0.142,0.771,0.062,0.917,0.481c0.138,0.396-0.016,0.793-0.424,0.935L287.752,214.123z M286.371,210.121
			c-0.385,0.134-0.763-0.078-0.901-0.474c-0.146-0.419,0.034-0.812,0.419-0.947c0.408-0.141,0.771,0.062,0.917,0.481
			c0.139,0.396-0.015,0.793-0.423,0.935L286.371,210.121z"/>
		<path fill="#494949" d="M289.241,206.25l-0.022,0.008l-1.039,1.137l-0.457-0.692l1.308-1.42l0.85-0.296l2.563,7.362l-0.963,0.336
			L289.241,206.25z"/>
		<path fill="#494949" d="M297.255,203.359l-2.809,0.978l0.367,1.968c0.162-0.082,0.313-0.16,0.585-0.254
			c0.577-0.201,1.176-0.27,1.723-0.157c0.688,0.117,1.389,0.597,1.72,1.548c0.501,1.438-0.268,2.913-1.865,3.469
			c-0.805,0.28-1.552,0.286-1.993,0.186l-0.015-0.846c0.369,0.075,1.047,0.092,1.728-0.145c0.929-0.324,1.531-1.219,1.173-2.212
			c-0.339-0.974-1.217-1.417-2.679-0.909c-0.43,0.15-0.747,0.298-1.003,0.438l-0.747-3.677l3.523-1.227L297.255,203.359z"/>
	</g>
	<path fill="none" stroke="#494949" stroke-miterlimit="10" d="M404.264,165.722l-21.163,8.497l-3.524-8.775l21.164-8.497
		L404.264,165.722z"/>
	<path fill="#494949" stroke="#494949" stroke-miterlimit="10" d="M398.535,166.371l-14.354,5.762l-2.381-5.931l14.354-5.763
		L398.535,166.371z"/>
	<path fill="none" stroke="#494949" stroke-miterlimit="10" d="M405.198,163.695l-1.462,0.587l-2.382-5.931l1.463-0.587
		L405.198,163.695z"/>
	<path fill="#20B2E5" d="M483.083,449.928c3.665,8.472-0.234,18.313-8.707,21.979l-131.961,57.073
		c-8.475,3.665-18.316-0.232-21.98-8.705l0,0c-3.667-8.477,0.233-18.316,8.707-21.982l131.963-57.073
		C469.579,437.554,479.417,441.451,483.083,449.928L483.083,449.928z"/>
	<g>
		<path fill="#FCFCFC" d="M367,495.145l4.453-1.928l0.388,0.896l-3.373,1.461l1.188,2.747l3.118-1.347l0.38,0.882l-3.116,1.348
			l1.619,3.742l-1.081,0.469L367,495.145z"/>
		<path fill="#FCFCFC" d="M374.458,496.886c-0.305-0.698-0.575-1.294-0.853-1.832l0.945-0.409l0.554,1.146l0.037-0.017
			c-0.077-0.915,0.37-1.703,1.093-2.017c0.112-0.048,0.202-0.071,0.309-0.091l0.439,1.007c-0.13,0.039-0.247,0.075-0.393,0.139
			c-0.761,0.329-1.052,1.139-0.855,2c0.045,0.172,0.109,0.347,0.19,0.531l1.367,3.165l-1.081,0.467L374.458,496.886z"/>
		<path fill="#FCFCFC" d="M379.561,496.221c0.655,1.452,1.835,1.655,2.917,1.188c0.773-0.333,1.192-0.676,1.516-1.004l0.524,0.673
			c-0.306,0.337-0.876,0.834-1.821,1.242c-1.816,0.785-3.447,0.047-4.218-1.732c-0.779-1.804-0.321-3.677,1.409-4.424
			c1.938-0.841,3.179,0.648,3.653,1.743c0.094,0.219,0.158,0.396,0.185,0.529L379.561,496.221z M382.379,494.083
			c-0.279-0.678-1.042-1.631-2.243-1.111c-1.104,0.479-1.136,1.686-0.897,2.471L382.379,494.083z"/>
		<path fill="#FCFCFC" d="M385.71,493.562c0.656,1.451,1.837,1.653,2.917,1.188c0.771-0.335,1.192-0.677,1.518-1.005l0.525,0.674
			c-0.31,0.336-0.881,0.832-1.826,1.241c-1.815,0.786-3.444,0.049-4.213-1.731c-0.779-1.803-0.323-3.677,1.407-4.426
			c1.938-0.84,3.179,0.652,3.652,1.743c0.096,0.221,0.156,0.397,0.185,0.53L385.71,493.562z M388.53,491.424
			c-0.277-0.678-1.041-1.631-2.244-1.111c-1.104,0.479-1.135,1.687-0.897,2.47L388.53,491.424z"/>
		<path fill="#FCFCFC" d="M395.304,489.631l0.266,2.975l-1.104,0.476l-0.768-9.487l1.289-0.556l6.399,7.051l-1.145,0.494
			l-2.005-2.22L395.304,489.631z M397.656,487.624l-1.853-2.022c-0.406-0.468-0.74-0.904-1.069-1.33l-0.038,0.015
			c0.099,0.529,0.186,1.101,0.244,1.671l0.223,2.745L397.656,487.624z"/>
		<path fill="#FCFCFC" d="M406.565,487.602c-0.227,0.256-0.759,0.738-1.557,1.081c-1.791,0.776-3.482,0.064-4.273-1.763
			c-0.791-1.829-0.118-3.708,1.821-4.544c0.637-0.277,1.27-0.363,1.633-0.331l0.11,0.929c-0.314-0.023-0.784,0.004-1.373,0.259
			c-1.362,0.588-1.657,1.928-1.122,3.164c0.596,1.375,1.844,1.841,3.021,1.332c0.615-0.267,0.957-0.59,1.204-0.855L406.565,487.602z
			"/>
		<path fill="#FCFCFC" d="M412.063,485.224c-0.223,0.255-0.757,0.735-1.557,1.082c-1.79,0.772-3.481,0.063-4.272-1.765
			c-0.791-1.829-0.119-3.706,1.819-4.545c0.639-0.275,1.272-0.363,1.637-0.328l0.11,0.929c-0.315-0.025-0.786,0.004-1.374,0.257
			c-1.363,0.589-1.657,1.928-1.121,3.164c0.591,1.375,1.843,1.841,3.021,1.332c0.614-0.268,0.955-0.589,1.204-0.855L412.063,485.224
			z"/>
		<path fill="#FCFCFC" d="M415.823,484.006c-1.598,0.692-3.356,0.051-4.168-1.823c-0.861-1.99-0.051-3.72,1.58-4.426
			c1.705-0.739,3.397,0.001,4.176,1.805c0.955,2.21-0.166,3.83-1.576,4.439L415.823,484.006z M415.506,483.182
			c1.034-0.447,1.387-1.752,0.804-3.102c-0.438-1.006-1.485-2.051-2.763-1.499c-1.263,0.547-1.305,1.962-0.817,3.092
			c0.563,1.3,1.723,1.965,2.767,1.512L415.506,483.182z"/>
		<path fill="#FCFCFC" d="M424.354,478.232c0.266,0.614,0.511,1.148,0.752,1.597l-0.958,0.413l-0.48-0.939l-0.025,0.009
			c-0.063,0.597-0.431,1.499-1.486,1.955c-0.933,0.403-2.274,0.358-3.174-1.717l-1.501-3.472l1.08-0.467l1.417,3.277
			c0.488,1.129,1.18,1.747,2.146,1.328c0.723-0.313,1.009-1.033,0.993-1.61c-0.003-0.175-0.048-0.387-0.139-0.593l-1.572-3.635
			l1.08-0.464L424.354,478.232z"/>
		<path fill="#FCFCFC" d="M424.977,474.743c-0.271-0.625-0.496-1.109-0.744-1.585l0.956-0.416l0.48,0.944l0.024-0.011
			c0.058-0.678,0.504-1.526,1.486-1.95c0.823-0.356,2.31-0.419,3.192,1.62l1.531,3.542l-1.078,0.467l-1.48-3.42
			c-0.415-0.959-1.119-1.613-2.139-1.173c-0.699,0.305-1.033,1.045-0.969,1.727c0.008,0.159,0.068,0.366,0.142,0.537l1.55,3.582
			l-1.078,0.467L424.977,474.743z"/>
		<path fill="#FCFCFC" d="M431.73,468.227l0.614,1.422l1.547-0.667l0.355,0.822l-1.547,0.668l1.386,3.203
			c0.32,0.736,0.709,1.063,1.311,0.802c0.295-0.126,0.453-0.226,0.595-0.345l0.402,0.801c-0.177,0.165-0.477,0.382-0.894,0.563
			c-0.503,0.217-0.982,0.221-1.361,0.049c-0.438-0.203-0.788-0.677-1.091-1.377l-1.402-3.237l-0.918,0.396l-0.355-0.824l0.918-0.396
			l-0.472-1.091L431.73,468.227z"/>
	</g>
	
		<linearGradient id="SVGID_25_" gradientUnits="userSpaceOnUse" x1="346.1982" y1="298.7905" x2="346.1982" y2="229.7545" gradientTransform="matrix(0.9307 -0.3658 0.3658 0.9307 -104.2856 161.8464)">
		<stop  offset="0" style="stop-color:#80D8FF"/>
		<stop  offset="0.0703" style="stop-color:#63CFFF"/>
		<stop  offset="0.1719" style="stop-color:#3FC4FF"/>
		<stop  offset="0.2746" style="stop-color:#24BBFF"/>
		<stop  offset="0.3776" style="stop-color:#10B5FF"/>
		<stop  offset="0.4812" style="stop-color:#04B1FF"/>
		<stop  offset="0.5862" style="stop-color:#00B0FF"/>
		<stop  offset="1" style="stop-color:#00B0FF"/>
	</linearGradient>
	<path fill="url(#SVGID_25_)" d="M334.629,234.25l22.541,57.358l-27.035,22.837l-0.129,0.081l-40.229,1.476l-21.759-55.371
		L334.629,234.25z"/>
	
		<linearGradient id="SVGID_26_" gradientUnits="userSpaceOnUse" x1="346.1982" y1="245.6099" x2="346.1982" y2="284.4867" gradientTransform="matrix(0.9307 -0.3658 0.3658 0.9307 -104.2856 161.8464)">
		<stop  offset="0" style="stop-color:#80D8FF"/>
		<stop  offset="1" style="stop-color:#0091EA"/>
	</linearGradient>
	<circle fill="url(#SVGID_26_)" cx="312.232" cy="275.197" r="23.394"/>
	<g>
		
			<linearGradient id="SVGID_27_" gradientUnits="userSpaceOnUse" x1="366.4478" y1="246.2246" x2="366.4478" y2="246.2246" gradientTransform="matrix(0.9307 -0.3658 0.3658 0.9307 -104.2856 161.8464)">
			<stop  offset="0" style="stop-color:#80D8FF"/>
			<stop  offset="1" style="stop-color:#FFFFFF"/>
		</linearGradient>
		<path fill="url(#SVGID_27_)" d="M326.83,256.979"/>
		
			<linearGradient id="SVGID_28_" gradientUnits="userSpaceOnUse" x1="349.6074" y1="234.8032" x2="349.6074" y2="234.8032" gradientTransform="matrix(0.9307 -0.3658 0.3658 0.9307 -104.2856 161.8464)">
			<stop  offset="0" style="stop-color:#80D8FF"/>
			<stop  offset="1" style="stop-color:#FFFFFF"/>
		</linearGradient>
		<path fill="url(#SVGID_28_)" d="M306.979,252.508"/>
		
			<linearGradient id="SVGID_29_" gradientUnits="userSpaceOnUse" x1="336.0464" y1="279.0601" x2="336.0464" y2="279.0601" gradientTransform="matrix(0.9307 -0.3658 0.3658 0.9307 -104.2856 161.8464)">
			<stop  offset="0" style="stop-color:#80D8FF"/>
			<stop  offset="1" style="stop-color:#FFFFFF"/>
		</linearGradient>
		<path fill="url(#SVGID_29_)" d="M310.544,298.659"/>
		
			<linearGradient id="SVGID_30_" gradientUnits="userSpaceOnUse" x1="352.8262" y1="242.5415" x2="352.8262" y2="269.9753" gradientTransform="matrix(0.9307 -0.3658 0.3658 0.9307 -104.2856 161.8464)">
			<stop  offset="0" style="stop-color:#80D8FF"/>
			<stop  offset="1" style="stop-color:#FFFFFF"/>
		</linearGradient>
		<path fill="url(#SVGID_30_)" d="M310.544,298.659l-2.518-30.354l1.252-0.492l18.679,24.818l0.005,0.005
			c7.015-6.351,9.75-16.597,6.091-25.906c-1.563-3.976-4.1-7.277-7.225-9.752l0.034,0.415l2.017,24.557l-21.902-29.441l-0.068,0.016
			c-1.112,0.258-2.149,0.582-3.243,1.011c-1.601,0.629-3.091,1.418-4.466,2.336"/>
		
			<linearGradient id="SVGID_31_" gradientUnits="userSpaceOnUse" x1="331.917" y1="242.5415" x2="331.917" y2="269.9756" gradientTransform="matrix(0.9307 -0.3658 0.3658 0.9307 -104.2856 161.8464)">
			<stop  offset="0" style="stop-color:#80D8FF"/>
			<stop  offset="1" style="stop-color:#FFFFFF"/>
		</linearGradient>
		<path fill="url(#SVGID_31_)" d="M299.201,255.872l3.388,37.234l-13.621-18.432l-0.174-0.236c-0.125,3.136,0.379,6.345,1.6,9.45
			c3.406,8.667,11.423,14.155,20.15,14.771"/>
	</g>
	<g>
		<path fill="#494949" d="M322.769,342.347l-2.706,1.063l-3.831-5.29c-0.139-0.187-0.405-0.583-0.798-1.187
			c-0.394-0.604-0.645-1.013-0.753-1.229c0.078,0.287,0.176,0.761,0.293,1.419c0.117,0.66,0.194,1.132,0.23,1.419l0.797,6.464
			l-2.699,1.061l-7.263-10.083l2.339-0.919l3.837,5.554c0.693,1.031,1.26,1.938,1.697,2.722c-0.083-0.303-0.19-0.781-0.32-1.436
			c-0.13-0.653-0.213-1.169-0.249-1.544l-0.834-6.92l2.246-0.883l4.1,5.637c0.182,0.252,0.44,0.648,0.774,1.183
			c0.334,0.535,0.611,0.999,0.83,1.39c-0.106-0.417-0.22-0.947-0.341-1.586c-0.121-0.64-0.209-1.162-0.262-1.566l-0.978-6.678
			l2.338-0.918L322.769,342.347z"/>
		<path fill="#494949" d="M330.786,339.374c-1.38,0.542-2.607,0.585-3.684,0.128c-1.076-0.455-1.888-1.381-2.437-2.776
			c-0.564-1.436-0.642-2.687-0.231-3.753c0.409-1.066,1.248-1.849,2.515-2.347c1.211-0.476,2.29-0.501,3.235-0.076
			c0.946,0.424,1.657,1.245,2.135,2.461l0.446,1.135l-5.526,2.172c0.286,0.655,0.687,1.095,1.202,1.325
			c0.514,0.228,1.103,0.211,1.768-0.05c0.516-0.202,0.982-0.448,1.4-0.736c0.418-0.288,0.832-0.646,1.24-1.08l0.711,1.81
			c-0.329,0.365-0.706,0.689-1.132,0.972C332.002,338.838,331.456,339.11,330.786,339.374z M327.618,332.282
			c-0.495,0.195-0.822,0.505-0.979,0.93c-0.157,0.425-0.143,0.934,0.043,1.528l3.281-1.29c-0.237-0.574-0.563-0.96-0.978-1.16
			C328.569,332.09,328.114,332.087,327.618,332.282z"/>
		<path fill="#494949" d="M337.458,326.496c1.012-0.398,1.959-0.314,2.842,0.25c0.883,0.565,1.594,1.535,2.134,2.91
			c0.556,1.415,0.692,2.627,0.407,3.636c-0.285,1.008-0.937,1.713-1.953,2.112c-1.007,0.396-1.939,0.341-2.799-0.165l-0.161,0.063
			l-0.021,1.096l-1.786,0.702l-4.688-11.928l2.338-0.919l1.091,2.775c0.139,0.353,0.33,0.93,0.574,1.73l0.092-0.036
			C335.742,327.659,336.385,326.917,337.458,326.496z M337.442,328.661c-0.577,0.227-0.929,0.57-1.055,1.029
			c-0.126,0.46-0.034,1.101,0.278,1.922l0.099,0.253c0.362,0.92,0.758,1.525,1.188,1.816s0.941,0.321,1.535,0.088
			c0.48-0.188,0.775-0.561,0.885-1.114c0.11-0.553,0-1.251-0.332-2.095c-0.332-0.843-0.724-1.418-1.175-1.728
			C338.412,328.523,337.938,328.466,337.442,328.661z"/>
		<path fill="#494949" d="M347.408,322.585c0.317-0.125,0.589-0.206,0.816-0.242l0.686,2.262c-0.209,0.023-0.449,0.088-0.72,0.195
			c-0.746,0.293-1.252,0.713-1.518,1.259c-0.266,0.548-0.264,1.166,0.007,1.856l1.714,4.361l-2.338,0.918l-3.368-8.57l1.771-0.695
			l0.911,1.306l0.115-0.045c0.077-0.585,0.284-1.113,0.621-1.584C346.442,323.134,346.876,322.794,347.408,322.585z"/>
		<path fill="#494949" d="M348.847,319.648c-0.299-0.762-0.025-1.309,0.824-1.643c0.848-0.333,1.422-0.119,1.721,0.643
			c0.142,0.363,0.147,0.687,0.014,0.973c-0.132,0.285-0.411,0.511-0.835,0.678C349.723,320.632,349.148,320.415,348.847,319.648z
			 M355.522,329.475l-2.337,0.919l-3.368-8.57l2.338-0.919L355.522,329.475z"/>
		<path fill="#494949" d="M366.123,318.822c0.519,1.319,0.72,2.517,0.603,3.592c-0.118,1.075-0.547,1.997-1.289,2.766l3.882,1.954
			l-3.043,1.196l-3.042-1.708l-0.176,0.069c-1.718,0.675-3.232,0.694-4.543,0.06c-1.311-0.635-2.333-1.885-3.067-3.75
			c-0.733-1.865-0.831-3.471-0.295-4.817c0.535-1.347,1.664-2.357,3.387-3.034c1.722-0.677,3.234-0.698,4.536-0.066
			C364.376,315.716,365.392,316.963,366.123,318.822z M357.944,322.037c0.493,1.253,1.101,2.102,1.825,2.549
			c0.724,0.446,1.559,0.484,2.505,0.113c1.896-0.745,2.349-2.377,1.358-4.897c-0.992-2.523-2.431-3.416-4.317-2.674
			c-0.946,0.372-1.534,0.97-1.763,1.794C357.322,319.747,357.453,320.786,357.944,322.037z"/>
	</g>
	<g>
		<path fill="#494949" d="M255.862,460.49l12.428,11.549l-0.005-16.973l0.818-0.359l6.583,15.074l-0.559,0.246l-6.222-14.246
			l-0.031,16.977l-0.446,0.193l-12.411-11.455l6.189,14.174l-0.559,0.244l-6.583-15.074L255.862,460.49z"/>
		<path fill="#494949" d="M276.147,462.654c-0.358-0.822-0.568-1.627-0.629-2.414c-0.06-0.787,0.019-1.521,0.234-2.203
			s0.563-1.291,1.043-1.83c0.481-0.539,1.082-0.967,1.806-1.283c0.732-0.32,1.46-0.473,2.185-0.461
			c0.725,0.014,1.41,0.174,2.053,0.48c0.643,0.305,1.232,0.748,1.769,1.326c0.536,0.582,0.985,1.281,1.343,2.102l0.19,0.436
			c0.359,0.822,0.57,1.623,0.634,2.41c0.065,0.787-0.012,1.52-0.228,2.201c-0.215,0.682-0.563,1.293-1.043,1.83
			c-0.481,0.537-1.082,0.967-1.807,1.283c-0.732,0.32-1.459,0.473-2.185,0.459c-0.724-0.01-1.41-0.168-2.057-0.475
			c-0.647-0.305-1.238-0.748-1.775-1.328c-0.536-0.578-0.984-1.277-1.343-2.1L276.147,462.654z M276.896,462.844
			c0.292,0.67,0.669,1.266,1.132,1.787c0.462,0.52,0.981,0.932,1.555,1.232c0.574,0.299,1.192,0.467,1.848,0.506
			c0.658,0.035,1.332-0.096,2.021-0.396c0.683-0.299,1.233-0.701,1.65-1.209c0.415-0.506,0.707-1.07,0.874-1.693
			c0.167-0.623,0.217-1.283,0.148-1.977c-0.068-0.693-0.249-1.373-0.542-2.043l-0.189-0.436c-0.287-0.654-0.661-1.242-1.121-1.76
			c-0.459-0.52-0.979-0.93-1.554-1.232c-0.576-0.303-1.195-0.477-1.855-0.52c-0.661-0.047-1.333,0.082-2.016,0.379
			c-0.684,0.299-1.233,0.705-1.649,1.221c-0.416,0.516-0.707,1.084-0.873,1.713c-0.167,0.627-0.216,1.285-0.149,1.975
			c0.068,0.691,0.246,1.363,0.531,2.018L276.896,462.844z"/>
		<path fill="#494949" d="M288.191,457.516c-0.385-0.881-0.638-1.719-0.755-2.504c-0.117-0.787-0.102-1.506,0.045-2.154
			c0.149-0.646,0.428-1.217,0.838-1.709c0.41-0.49,0.946-0.881,1.609-1.172c0.462-0.201,0.911-0.332,1.346-0.391
			c0.436-0.057,0.853-0.057,1.253,0.004c0.399,0.059,0.783,0.176,1.151,0.348c0.366,0.172,0.713,0.387,1.041,0.648l-2.953-6.76
			l0.559-0.246l6.945,15.902l-0.559,0.246l-0.782-1.793c-0.046,0.365-0.14,0.723-0.279,1.072c-0.14,0.348-0.331,0.682-0.573,1
			c-0.242,0.32-0.537,0.615-0.883,0.887c-0.346,0.27-0.751,0.506-1.212,0.709c-0.664,0.289-1.314,0.41-1.955,0.365
			c-0.641-0.045-1.25-0.24-1.826-0.582c-0.579-0.344-1.115-0.824-1.61-1.441c-0.497-0.619-0.931-1.355-1.304-2.213L288.191,457.516z
			 M288.867,457.48c0.326,0.746,0.7,1.4,1.123,1.963c0.422,0.564,0.882,1.01,1.379,1.338c0.497,0.33,1.028,0.523,1.591,0.584
			c0.563,0.057,1.152-0.049,1.767-0.316c0.51-0.225,0.947-0.486,1.309-0.789c0.36-0.301,0.652-0.629,0.876-0.986
			c0.222-0.355,0.378-0.73,0.47-1.123c0.091-0.393,0.13-0.791,0.118-1.199l-2.292-5.248c-0.252-0.275-0.545-0.541-0.878-0.793
			c-0.333-0.254-0.708-0.451-1.128-0.594c-0.419-0.141-0.881-0.203-1.389-0.188c-0.507,0.016-1.057,0.152-1.651,0.412
			c-0.613,0.268-1.092,0.629-1.438,1.084c-0.343,0.453-0.565,0.975-0.667,1.561c-0.102,0.586-0.089,1.227,0.037,1.92
			c0.125,0.693,0.352,1.412,0.677,2.158L288.867,457.48z"/>
		<path fill="#494949" d="M306.929,456.385c-0.684,0.297-1.382,0.439-2.097,0.424c-0.713-0.018-1.401-0.178-2.062-0.477
			c-0.661-0.297-1.268-0.73-1.819-1.299c-0.553-0.568-1.005-1.26-1.363-2.076l-0.198-0.455c-0.356-0.813-0.559-1.619-0.612-2.414
			c-0.05-0.795,0.028-1.533,0.238-2.211c0.208-0.678,0.538-1.279,0.985-1.807c0.449-0.523,0.998-0.928,1.647-1.213
			c0.621-0.27,1.243-0.402,1.865-0.398c0.622,0.004,1.213,0.133,1.772,0.389c0.561,0.26,1.074,0.633,1.541,1.129
			c0.467,0.494,0.855,1.098,1.167,1.807l0.285,0.652l-8.397,3.668l0.068,0.154l0.199,0.457c0.305,0.695,0.699,1.303,1.188,1.816
			c0.488,0.516,1.025,0.912,1.613,1.195c0.586,0.281,1.203,0.436,1.849,0.467c0.646,0.029,1.276-0.09,1.89-0.355
			c0.318-0.141,0.616-0.301,0.896-0.48c0.279-0.178,0.531-0.385,0.757-0.625c0.224-0.236,0.421-0.51,0.591-0.818
			c0.169-0.309,0.304-0.666,0.407-1.07l0.515,0.107c-0.068,0.35-0.175,0.688-0.319,1.014c-0.146,0.328-0.338,0.637-0.575,0.93
			c-0.238,0.293-0.523,0.566-0.857,0.816C307.768,455.963,307.378,456.189,306.929,456.385z M301.893,445.418
			c-0.565,0.248-1.037,0.586-1.414,1.012c-0.375,0.428-0.658,0.916-0.847,1.461c-0.188,0.547-0.28,1.133-0.275,1.754
			c0.004,0.623,0.109,1.252,0.312,1.885l7.806-3.406l-0.059-0.137c-0.245-0.559-0.565-1.055-0.962-1.482
			c-0.397-0.43-0.84-0.77-1.33-1.012c-0.487-0.242-1.008-0.377-1.562-0.4C303.008,445.064,302.452,445.174,301.893,445.418z"/>
		<path fill="#494949" d="M313.717,440.316c-0.116,0.033-0.238,0.07-0.365,0.107c-0.126,0.041-0.256,0.088-0.386,0.145
			c-0.518,0.229-0.944,0.521-1.279,0.883c-0.337,0.359-0.588,0.762-0.755,1.209s-0.254,0.928-0.265,1.439
			c-0.009,0.516,0.051,1.043,0.181,1.586l3.206,7.34l-0.559,0.244l-4.892-11.201l0.559-0.244l1.018,2.33
			c-0.038-0.912,0.148-1.73,0.556-2.449c0.409-0.725,1.072-1.283,1.99-1.686c0.173-0.074,0.328-0.129,0.47-0.166
			c0.14-0.037,0.262-0.057,0.367-0.061L313.717,440.316z"/>
		<path fill="#494949" d="M317.546,439.949c0.108-0.457,0.275-0.885,0.505-1.285c0.228-0.4,0.514-0.764,0.862-1.086
			c0.348-0.324,0.756-0.59,1.225-0.795c0.566-0.248,1.104-0.389,1.614-0.426c0.509-0.039,0.989,0.043,1.439,0.248
			c0.449,0.199,0.868,0.531,1.256,0.984c0.388,0.455,0.744,1.055,1.071,1.801l3.164,7.248l-0.56,0.242l-3.165-7.246
			c-0.31-0.711-0.64-1.268-0.993-1.668c-0.352-0.398-0.722-0.678-1.109-0.834c-0.389-0.156-0.792-0.207-1.214-0.154
			c-0.42,0.053-0.853,0.174-1.294,0.367c-0.408,0.178-0.755,0.398-1.043,0.66c-0.289,0.262-0.526,0.549-0.715,0.859
			c-0.189,0.314-0.335,0.641-0.441,0.982s-0.176,0.686-0.21,1.029s-0.044,0.676-0.027,0.998s0.051,0.615,0.101,0.879l3.133,7.176
			l-0.559,0.244l-4.892-11.201l0.56-0.246l1.14,2.609C317.387,440.869,317.438,440.408,317.546,439.949z"/>
		<path fill="#494949" d="M340.833,424.047l-5.487,2.397l6.339,14.514l-0.559,0.246l-6.339-14.516l-5.487,2.397l-0.244-0.561
			l11.532-5.036L340.833,424.047z"/>
		<path fill="#494949" d="M352.616,436.432c-0.683,0.297-1.382,0.438-2.095,0.424c-0.716-0.018-1.402-0.176-2.063-0.475
			c-0.661-0.299-1.269-0.732-1.82-1.301c-0.553-0.568-1.006-1.26-1.361-2.074l-0.199-0.455c-0.355-0.814-0.56-1.621-0.61-2.416
			c-0.052-0.795,0.026-1.533,0.236-2.209c0.209-0.679,0.538-1.282,0.986-1.808c0.45-0.524,0.999-0.928,1.647-1.212
			c0.621-0.271,1.243-0.403,1.865-0.4c0.623,0.004,1.213,0.134,1.773,0.391c0.561,0.257,1.074,0.632,1.54,1.127
			c0.467,0.495,0.855,1.098,1.166,1.807l0.284,0.652l-8.396,3.668l0.068,0.154l0.2,0.457c0.305,0.697,0.7,1.303,1.189,1.816
			c0.487,0.516,1.024,0.912,1.612,1.195c0.586,0.281,1.203,0.436,1.849,0.467c0.647,0.031,1.277-0.09,1.891-0.357
			c0.317-0.139,0.615-0.297,0.896-0.479c0.278-0.178,0.531-0.385,0.756-0.623c0.224-0.24,0.422-0.512,0.591-0.82
			c0.168-0.309,0.305-0.666,0.407-1.072l0.517,0.109c-0.07,0.35-0.177,0.688-0.322,1.014c-0.146,0.326-0.337,0.637-0.575,0.93
			c-0.237,0.293-0.523,0.566-0.857,0.816C353.456,436.012,353.064,436.236,352.616,436.432z M347.58,425.465
			c-0.566,0.247-1.037,0.585-1.414,1.012c-0.375,0.428-0.658,0.916-0.847,1.46c-0.188,0.547-0.281,1.133-0.275,1.754
			c0.004,0.623,0.109,1.252,0.313,1.885l7.806-3.408l-0.059-0.135c-0.244-0.558-0.564-1.053-0.962-1.483
			c-0.397-0.431-0.84-0.768-1.328-1.012c-0.489-0.241-1.01-0.376-1.563-0.4C348.696,425.112,348.138,425.221,347.58,425.465z"/>
		<path fill="#494949" d="M362.827,431.307c0.436-0.191,0.835-0.434,1.202-0.736c0.367-0.299,0.663-0.643,0.886-1.033
			c0.225-0.391,0.36-0.82,0.407-1.299c0.047-0.475-0.029-0.991-0.23-1.544l0.559-0.244c0.222,0.585,0.315,1.15,0.278,1.697
			s-0.177,1.055-0.417,1.527c-0.243,0.471-0.573,0.893-0.992,1.271c-0.421,0.375-0.902,0.684-1.447,0.92
			c-0.725,0.318-1.432,0.461-2.122,0.434c-0.69-0.025-1.338-0.201-1.944-0.525c-0.604-0.322-1.159-0.783-1.661-1.377
			c-0.502-0.592-0.932-1.301-1.291-2.123l-0.19-0.436c-0.358-0.82-0.585-1.618-0.679-2.39c-0.096-0.772-0.055-1.49,0.118-2.153
			c0.175-0.662,0.483-1.256,0.925-1.778c0.442-0.522,1.025-0.941,1.749-1.258c0.54-0.234,1.091-0.377,1.657-0.428
			c0.566-0.05,1.111,0.007,1.635,0.17c0.522,0.16,1.006,0.436,1.455,0.819c0.445,0.384,0.823,0.89,1.132,1.52l-0.56,0.244
			c-0.271-0.548-0.602-0.984-0.992-1.311c-0.39-0.329-0.809-0.56-1.259-0.695c-0.45-0.135-0.916-0.181-1.402-0.135
			c-0.484,0.048-0.959,0.172-1.42,0.374c-0.684,0.3-1.22,0.69-1.61,1.171c-0.389,0.483-0.647,1.023-0.777,1.622
			c-0.128,0.599-0.139,1.24-0.031,1.918c0.107,0.683,0.314,1.37,0.618,2.066l0.19,0.436c0.308,0.703,0.674,1.328,1.1,1.869
			c0.425,0.541,0.902,0.963,1.43,1.271c0.53,0.309,1.103,0.482,1.722,0.525C361.483,431.736,362.137,431.607,362.827,431.307z"/>
		<path fill="#494949" d="M366.745,419.784c-0.006-0.466,0.045-0.928,0.153-1.387c0.107-0.458,0.276-0.885,0.504-1.286
			c0.228-0.398,0.516-0.763,0.863-1.086c0.347-0.325,0.755-0.589,1.225-0.793c0.565-0.248,1.104-0.39,1.614-0.429
			c0.51-0.036,0.988,0.044,1.438,0.246c0.451,0.204,0.868,0.531,1.257,0.986c0.389,0.457,0.745,1.055,1.07,1.801l3.165,7.247
			l-0.559,0.246l-3.165-7.247c-0.31-0.712-0.642-1.269-0.994-1.669c-0.352-0.401-0.722-0.679-1.11-0.833
			c-0.388-0.155-0.792-0.206-1.213-0.156c-0.421,0.053-0.854,0.176-1.295,0.367c-0.407,0.179-0.754,0.4-1.043,0.66
			c-0.288,0.263-0.526,0.549-0.714,0.859c-0.188,0.314-0.335,0.641-0.44,0.982c-0.105,0.342-0.175,0.686-0.21,1.029
			c-0.035,0.345-0.044,0.678-0.027,0.998c0.018,0.32,0.051,0.615,0.101,0.88l3.134,7.176l-0.56,0.244l-6.944-15.902l0.56-0.245
			L366.745,419.784z"/>
		<path fill="#494949" d="M378.504,413.329c0.107-0.457,0.276-0.887,0.504-1.286c0.229-0.398,0.515-0.763,0.864-1.086
			c0.347-0.325,0.755-0.591,1.223-0.794c0.568-0.248,1.105-0.389,1.615-0.427c0.509-0.038,0.988,0.043,1.439,0.247
			c0.45,0.203,0.868,0.531,1.257,0.985c0.388,0.457,0.743,1.056,1.07,1.802l3.165,7.247l-0.559,0.245l-3.166-7.248
			c-0.31-0.71-0.642-1.267-0.994-1.668c-0.352-0.401-0.722-0.68-1.109-0.834c-0.389-0.155-0.793-0.206-1.215-0.154
			c-0.42,0.053-0.851,0.174-1.293,0.367c-0.407,0.178-0.755,0.397-1.044,0.66c-0.289,0.261-0.526,0.547-0.714,0.859
			c-0.189,0.313-0.336,0.639-0.441,0.983c-0.105,0.34-0.175,0.683-0.209,1.027c-0.035,0.346-0.044,0.677-0.027,0.999
			c0.018,0.321,0.052,0.615,0.101,0.878l3.133,7.176l-0.559,0.244l-4.892-11.201l0.56-0.245l1.14,2.609
			C378.344,414.249,378.396,413.788,378.504,413.329z"/>
		<path fill="#494949" d="M389.76,413.035c-0.359-0.819-0.569-1.625-0.63-2.413c-0.06-0.788,0.018-1.52,0.234-2.202
			c0.217-0.682,0.564-1.292,1.044-1.831c0.479-0.538,1.082-0.965,1.807-1.282c0.73-0.319,1.46-0.473,2.185-0.46
			c0.724,0.013,1.407,0.172,2.052,0.478c0.642,0.308,1.232,0.75,1.769,1.329c0.537,0.579,0.984,1.28,1.345,2.101l0.189,0.434
			c0.357,0.822,0.568,1.625,0.634,2.412c0.063,0.784-0.014,1.519-0.229,2.2s-0.563,1.294-1.043,1.831
			c-0.48,0.538-1.082,0.966-1.809,1.281c-0.731,0.321-1.458,0.474-2.183,0.462c-0.724-0.013-1.409-0.171-2.058-0.476
			c-0.646-0.307-1.238-0.749-1.775-1.328c-0.537-0.58-0.983-1.278-1.342-2.101L389.76,413.035z M390.509,413.227
			c0.292,0.67,0.668,1.264,1.13,1.785c0.463,0.522,0.981,0.934,1.556,1.231c0.575,0.3,1.191,0.47,1.85,0.507
			c0.655,0.037,1.329-0.094,2.021-0.396c0.684-0.298,1.232-0.7,1.648-1.205c0.417-0.509,0.708-1.074,0.874-1.696
			c0.167-0.623,0.217-1.282,0.149-1.975c-0.07-0.694-0.25-1.374-0.542-2.044l-0.19-0.436c-0.286-0.655-0.66-1.242-1.12-1.76
			c-0.461-0.519-0.977-0.929-1.555-1.233c-0.575-0.303-1.194-0.477-1.854-0.521c-0.662-0.045-1.334,0.082-2.017,0.381
			c-0.684,0.298-1.233,0.705-1.65,1.22c-0.415,0.514-0.707,1.085-0.873,1.713c-0.166,0.626-0.216,1.286-0.148,1.977
			c0.067,0.688,0.245,1.361,0.531,2.017L390.509,413.227z"/>
		<path fill="#494949" d="M405.511,413.083l-0.56,0.246l-6.945-15.902l0.562-0.245L405.511,413.083z"/>
		<path fill="#494949" d="M405.795,406.032c-0.357-0.821-0.567-1.625-0.628-2.413c-0.061-0.787,0.019-1.521,0.234-2.203
			c0.217-0.682,0.563-1.292,1.043-1.831c0.48-0.539,1.082-0.966,1.806-1.283c0.733-0.319,1.461-0.473,2.186-0.46
			s1.407,0.173,2.053,0.478c0.642,0.307,1.232,0.75,1.769,1.329c0.537,0.58,0.984,1.28,1.344,2.101l0.189,0.436
			c0.359,0.821,0.57,1.625,0.634,2.41c0.063,0.787-0.014,1.52-0.228,2.202c-0.216,0.682-0.564,1.293-1.044,1.831
			c-0.48,0.538-1.083,0.965-1.807,1.281c-0.733,0.32-1.46,0.475-2.186,0.463c-0.724-0.013-1.409-0.172-2.057-0.476
			c-0.646-0.308-1.238-0.749-1.775-1.328c-0.535-0.58-0.983-1.279-1.343-2.101L405.795,406.032z M406.546,406.223
			c0.291,0.67,0.669,1.265,1.13,1.787c0.462,0.521,0.981,0.932,1.556,1.231s1.19,0.469,1.848,0.506
			c0.658,0.038,1.331-0.093,2.022-0.396c0.683-0.298,1.231-0.701,1.647-1.206c0.416-0.508,0.709-1.072,0.875-1.696
			s0.217-1.283,0.148-1.975c-0.068-0.694-0.248-1.375-0.541-2.044l-0.189-0.435c-0.288-0.655-0.661-1.242-1.12-1.76
			c-0.462-0.519-0.979-0.929-1.555-1.232c-0.577-0.304-1.195-0.478-1.855-0.521c-0.66-0.044-1.332,0.083-2.016,0.38
			c-0.684,0.299-1.233,0.705-1.649,1.22c-0.416,0.515-0.708,1.085-0.874,1.713c-0.165,0.627-0.215,1.285-0.147,1.975
			c0.065,0.689,0.243,1.362,0.53,2.018L406.546,406.223z"/>
		<path fill="#494949" d="M417.831,400.899c-0.387-0.882-0.639-1.718-0.757-2.505c-0.116-0.786-0.102-1.503,0.047-2.153
			c0.149-0.647,0.429-1.217,0.838-1.709c0.41-0.491,0.946-0.882,1.608-1.171c0.454-0.199,0.901-0.328,1.336-0.386
			c0.435-0.058,0.853-0.058,1.251,0.002c0.4,0.06,0.783,0.174,1.148,0.343c0.366,0.169,0.712,0.384,1.039,0.643l-0.895-2.05
			l0.569-0.249l4.824,11.047c0.314,0.718,0.5,1.407,0.558,2.067c0.058,0.661-0.007,1.273-0.196,1.836
			c-0.188,0.563-0.498,1.068-0.925,1.513c-0.425,0.445-0.97,0.813-1.631,1.103c-0.408,0.178-0.813,0.297-1.211,0.36
			c-0.398,0.065-0.786,0.082-1.164,0.047c-0.375-0.033-0.742-0.109-1.098-0.229c-0.356-0.118-0.696-0.273-1.017-0.461l0.231-0.545
			c0.676,0.362,1.337,0.577,1.981,0.645c0.647,0.066,1.318-0.051,2.015-0.355c0.607-0.265,1.099-0.596,1.474-0.989
			s0.639-0.838,0.792-1.333c0.154-0.494,0.198-1.03,0.132-1.604c-0.065-0.575-0.237-1.177-0.511-1.805l-0.705-1.615
			c-0.05,0.359-0.144,0.711-0.284,1.061c-0.139,0.349-0.328,0.681-0.569,0.995c-0.241,0.315-0.533,0.607-0.88,0.877
			c-0.347,0.271-0.751,0.507-1.213,0.709c-0.662,0.29-1.314,0.411-1.955,0.367c-0.639-0.045-1.249-0.24-1.825-0.583
			c-0.578-0.344-1.114-0.824-1.61-1.441c-0.494-0.619-0.931-1.355-1.304-2.212L417.831,400.899z M418.494,400.868
			c0.325,0.746,0.7,1.401,1.123,1.964c0.421,0.563,0.884,1.009,1.384,1.336c0.501,0.328,1.034,0.521,1.597,0.579
			c0.564,0.058,1.153-0.047,1.768-0.315c0.524-0.229,0.966-0.498,1.325-0.807c0.357-0.309,0.646-0.645,0.865-1.007
			c0.221-0.364,0.372-0.744,0.457-1.142c0.084-0.399,0.11-0.806,0.078-1.219l-2.219-5.083c-0.248-0.286-0.54-0.562-0.869-0.829
			c-0.329-0.267-0.704-0.475-1.123-0.625c-0.418-0.148-0.885-0.22-1.398-0.209c-0.512,0.012-1.072,0.148-1.68,0.414
			c-0.615,0.268-1.097,0.631-1.443,1.086c-0.347,0.456-0.571,0.978-0.674,1.564c-0.102,0.587-0.088,1.227,0.037,1.919
			c0.128,0.693,0.353,1.412,0.679,2.157L418.494,400.868z"/>
		<path fill="#494949" d="M435.528,398.94l-0.019-0.239l-0.55-11.817l0.621-0.271l0.728,15.241c0.011,0.274,0.021,0.592,0.026,0.955
			c0.008,0.364-0.039,0.729-0.138,1.096c-0.098,0.367-0.274,0.72-0.53,1.057c-0.254,0.338-0.638,0.619-1.149,0.842
			c-0.055,0.024-0.122,0.051-0.203,0.083c-0.082,0.031-0.163,0.058-0.248,0.083c-0.084,0.024-0.163,0.044-0.237,0.062
			c-0.075,0.016-0.139,0.022-0.188,0.02l-0.24-0.522c0.053-0.008,0.121-0.023,0.201-0.046c0.081-0.023,0.159-0.045,0.236-0.066
			s0.148-0.044,0.21-0.067c0.064-0.024,0.114-0.042,0.148-0.058c0.345-0.151,0.623-0.337,0.832-0.561
			c0.211-0.223,0.369-0.475,0.473-0.755c0.104-0.28,0.17-0.585,0.196-0.917c0.028-0.333,0.03-0.685,0.006-1.062l-0.123-2.117
			l-9.327-9.191l0.61-0.267L435.528,398.94z"/>
		<path fill="#494949" d="M455.417,386.986c-0.207-0.476-0.474-0.863-0.802-1.159c-0.326-0.298-0.739-0.516-1.235-0.657
			c-0.496-0.141-1.095-0.206-1.794-0.197c-0.698,0.01-1.526,0.084-2.485,0.223c-0.856,0.128-1.644,0.209-2.36,0.242
			c-0.716,0.034-1.358-0.013-1.928-0.138c-0.568-0.125-1.062-0.354-1.477-0.686c-0.415-0.332-0.757-0.801-1.023-1.41
			c-0.249-0.572-0.345-1.142-0.289-1.709c0.056-0.567,0.237-1.106,0.544-1.618c0.307-0.512,0.729-0.986,1.265-1.422
			c0.537-0.437,1.162-0.81,1.872-1.121c0.731-0.319,1.451-0.506,2.159-0.56c0.707-0.054,1.369,0.017,1.984,0.212
			c0.616,0.195,1.168,0.513,1.656,0.954c0.488,0.44,0.877,0.99,1.166,1.653l-0.559,0.244c-0.245-0.56-0.577-1.029-0.997-1.407
			c-0.421-0.379-0.903-0.658-1.444-0.836c-0.542-0.179-1.13-0.247-1.765-0.203c-0.635,0.042-1.287,0.21-1.956,0.503
			c-0.713,0.311-1.307,0.671-1.785,1.081c-0.478,0.41-0.842,0.84-1.093,1.291c-0.251,0.45-0.394,0.907-0.427,1.37
			c-0.032,0.462,0.041,0.896,0.218,1.303c0.177,0.401,0.408,0.742,0.694,1.023c0.288,0.281,0.668,0.495,1.144,0.641
			c0.475,0.146,1.063,0.221,1.762,0.224c0.699,0.002,1.552-0.076,2.56-0.237c0.83-0.131,1.604-0.213,2.326-0.245
			c0.723-0.031,1.381,0.022,1.976,0.161c0.594,0.138,1.116,0.383,1.565,0.734c0.449,0.35,0.813,0.842,1.09,1.478
			c0.269,0.615,0.372,1.22,0.313,1.817c-0.061,0.597-0.25,1.159-0.571,1.685c-0.321,0.527-0.754,1.01-1.301,1.45
			c-0.548,0.44-1.173,0.815-1.878,1.123c-0.429,0.187-0.877,0.344-1.347,0.47c-0.471,0.128-0.944,0.211-1.42,0.251
			c-0.476,0.039-0.943,0.023-1.402-0.048c-0.458-0.07-0.895-0.213-1.307-0.427c-0.416-0.214-0.795-0.506-1.142-0.875
			c-0.348-0.371-0.644-0.84-0.892-1.406l0.56-0.244c0.22,0.503,0.488,0.917,0.801,1.241c0.313,0.323,0.66,0.575,1.038,0.755
			c0.379,0.18,0.776,0.295,1.194,0.348c0.418,0.052,0.837,0.059,1.261,0.022c0.423-0.038,0.84-0.113,1.249-0.23
			c0.408-0.117,0.796-0.256,1.162-0.416c0.662-0.29,1.237-0.635,1.723-1.037c0.486-0.402,0.869-0.833,1.147-1.296
			c0.279-0.463,0.444-0.944,0.492-1.442C455.709,387.961,455.629,387.469,455.417,386.986z"/>
		<path fill="#494949" d="M455.256,374.422l1.32,3.021l2.545-1.112l0.25,0.57l-2.548,1.112l3.473,7.95
			c0.215,0.491,0.433,0.868,0.656,1.133c0.221,0.265,0.447,0.448,0.676,0.549c0.229,0.101,0.458,0.136,0.687,0.107
			c0.23-0.031,0.459-0.096,0.687-0.196c0.215-0.093,0.4-0.185,0.56-0.274c0.157-0.091,0.325-0.19,0.508-0.303l0.323,0.487
			c-0.063,0.061-0.144,0.121-0.242,0.18c-0.097,0.059-0.199,0.117-0.306,0.175c-0.105,0.06-0.208,0.113-0.312,0.162
			c-0.102,0.049-0.188,0.089-0.256,0.118c-0.358,0.157-0.699,0.253-1.021,0.287c-0.323,0.034-0.63-0.017-0.924-0.152
			c-0.293-0.136-0.571-0.367-0.839-0.694c-0.267-0.328-0.521-0.771-0.766-1.33l-3.471-7.952l-2.073,0.905l-0.247-0.57l2.071-0.905
			l-1.32-3.021L455.256,374.422z"/>
		<path fill="#494949" d="M474.161,383.103c-0.19-0.229-0.383-0.521-0.574-0.876c-0.192-0.356-0.369-0.718-0.528-1.083
			c-0.053,0.385-0.159,0.774-0.316,1.167c-0.157,0.393-0.373,0.773-0.648,1.14s-0.614,0.71-1.017,1.029
			c-0.403,0.321-0.884,0.603-1.443,0.847c-0.523,0.228-1.032,0.361-1.52,0.399c-0.49,0.037-0.944-0.013-1.361-0.151
			c-0.418-0.138-0.789-0.359-1.115-0.661c-0.324-0.302-0.584-0.677-0.779-1.125c-0.219-0.498-0.302-1.008-0.251-1.531
			c0.052-0.523,0.233-1.032,0.548-1.527c0.313-0.495,0.755-0.967,1.322-1.417c0.569-0.449,1.257-0.851,2.064-1.204l2.681-1.171
			l-0.713-1.635c-0.411-0.938-1.024-1.538-1.841-1.798c-0.816-0.26-1.772-0.15-2.87,0.329c-0.51,0.223-0.953,0.499-1.327,0.827
			c-0.376,0.328-0.669,0.685-0.884,1.07c-0.214,0.385-0.338,0.785-0.376,1.2c-0.036,0.414,0.031,0.815,0.199,1.201l-0.568,0.223
			c-0.19-0.435-0.271-0.895-0.239-1.381c0.03-0.486,0.164-0.959,0.402-1.42c0.238-0.462,0.572-0.892,1.003-1.289
			c0.43-0.398,0.946-0.729,1.546-0.991c0.58-0.253,1.146-0.412,1.697-0.475s1.067-0.027,1.547,0.113
			c0.48,0.14,0.916,0.389,1.307,0.748c0.393,0.36,0.715,0.833,0.971,1.419l2.45,5.611c0.088,0.2,0.185,0.403,0.292,0.607
			c0.104,0.205,0.211,0.396,0.318,0.576c0.106,0.179,0.214,0.344,0.32,0.494c0.106,0.151,0.208,0.272,0.305,0.359l0.041,0.094
			L474.161,383.103z M469.395,384.778c0.537-0.235,1.009-0.515,1.413-0.839c0.405-0.325,0.741-0.686,1.008-1.081
			c0.267-0.396,0.469-0.819,0.604-1.269c0.137-0.451,0.208-0.923,0.213-1.419l-1.162-2.66l-2.65,1.157
			c-0.725,0.316-1.342,0.67-1.853,1.063c-0.513,0.392-0.913,0.802-1.201,1.232c-0.288,0.431-0.462,0.871-0.521,1.32
			c-0.059,0.448,0.003,0.883,0.188,1.304c0.147,0.338,0.357,0.625,0.627,0.86c0.272,0.235,0.584,0.409,0.938,0.522
			c0.352,0.114,0.734,0.157,1.142,0.131C468.548,385.072,468.966,384.965,469.395,384.778z"/>
		<path fill="#494949" d="M481.762,379.365c0.435-0.19,0.836-0.435,1.199-0.735c0.368-0.3,0.664-0.645,0.89-1.034
			c0.223-0.391,0.358-0.823,0.406-1.3c0.046-0.476-0.032-0.992-0.232-1.545l0.559-0.244c0.223,0.586,0.316,1.151,0.278,1.698
			c-0.036,0.546-0.176,1.054-0.418,1.526c-0.242,0.471-0.572,0.896-0.991,1.271s-0.902,0.683-1.446,0.921
			c-0.725,0.316-1.434,0.46-2.123,0.433c-0.69-0.026-1.338-0.202-1.944-0.525c-0.604-0.324-1.157-0.783-1.66-1.377
			c-0.501-0.595-0.932-1.302-1.29-2.124l-0.19-0.435c-0.357-0.822-0.586-1.619-0.682-2.391c-0.094-0.772-0.054-1.489,0.121-2.153
			c0.175-0.664,0.483-1.257,0.924-1.779c0.441-0.521,1.024-0.941,1.749-1.258c0.54-0.234,1.092-0.377,1.657-0.427
			c0.566-0.05,1.109,0.006,1.634,0.168c0.521,0.163,1.007,0.437,1.455,0.82c0.447,0.383,0.823,0.891,1.132,1.52l-0.559,0.245
			c-0.272-0.546-0.603-0.984-0.992-1.311c-0.39-0.327-0.809-0.559-1.26-0.695c-0.448-0.137-0.916-0.181-1.401-0.134
			c-0.485,0.048-0.959,0.172-1.421,0.374c-0.683,0.298-1.22,0.689-1.608,1.171c-0.389,0.482-0.648,1.022-0.777,1.622
			c-0.129,0.598-0.14,1.238-0.031,1.918c0.107,0.681,0.315,1.369,0.619,2.065l0.189,0.435c0.307,0.704,0.674,1.328,1.1,1.869
			c0.426,0.542,0.901,0.966,1.431,1.273s1.104,0.481,1.721,0.524C480.417,379.796,481.071,379.667,481.762,379.365z"/>
		<path fill="#494949" d="M488.433,369.659l-0.012,0.029l-1.016,2.107l2.026,4.638l-0.56,0.244l-6.944-15.901l0.559-0.245
			l4.653,10.653l0.771-1.817l3.037-6.936l0.798-0.348l-3.063,7.021l8.274,4.042l-0.724,0.317L488.433,369.659z"/>
	</g>
	
		<text transform="matrix(0.9204 -0.391 0.391 0.9204 311.6968 484.4043)" fill="#494949" font-family="'Roboto-Thin'" font-size="11.3217">for developers and content editors</text>
	<g>
		<linearGradient id="SVGID_32_" gradientUnits="userSpaceOnUse" x1="254.0981" y1="358.4702" x2="626.4634" y2="358.4702">
			<stop  offset="0" style="stop-color:#FFFFFF"/>
			<stop  offset="1" style="stop-color:#E5D1CD"/>
		</linearGradient>
		<path opacity="0.4" fill="url(#SVGID_32_)" d="M259.155,136.018l367.309,493.485c-0.814-2.667-1.554-4.256-1.554-4.256
			s-197.012-474.48-212.243-510.24c-15.231-35.76-48.011-26.488-48.011-26.488l-110.558,44.925L259.155,136.018z"/>
		<linearGradient id="SVGID_33_" gradientUnits="userSpaceOnUse" x1="324.4155" y1="726.2266" x2="355.7354" y2="726.2266">
			<stop  offset="0" style="stop-color:#FFF9ED"/>
			<stop  offset="1" style="stop-color:#F5E9DE"/>
		</linearGradient>
		<linearGradient id="SVGID_34_" gradientUnits="userSpaceOnUse" x1="323.9541" y1="727.2051" x2="357.3057" y2="727.2051">
			<stop  offset="0" style="stop-color:#8C7D8B"/>
			<stop  offset="1" style="stop-color:#E5D1CD"/>
		</linearGradient>
		<path fill="url(#SVGID_33_)" stroke="url(#SVGID_34_)" stroke-miterlimit="10" d="M348.764,751.07
			c2.167,3.417,4.518,6.233,6.972,8.551l-31.32-66.79L348.764,751.07z"/>
	</g>
</g>
<g id="photage" display="none">
	<path display="inline" fill="#FFFFFF" stroke="#494949" stroke-width="2" stroke-miterlimit="10" d="M125.157,218.444
		c0,0-8.325-28.638,18.981-42.291l220.447-89.578c0,0,32.967-9.325,48.285,26.64c15.319,35.963,213.456,513.155,213.456,513.155
		s15.984,34.3-18.649,52.282l-212.786,90.909c0,0-28.973,10.655-46.289-16.65L125.157,218.444z"/>
	<path display="inline" fill="#FFF0D8" stroke="#494949" stroke-miterlimit="10" d="M126.588,219.638
		c0,0-8.278-28.477,18.874-42.051l219.194-89.069c0,0,32.779-9.272,48.011,26.488c15.231,35.76,212.243,510.24,212.243,510.24
		s15.894,34.106-18.542,51.986L394.79,767.625c0,0-28.809,10.595-46.026-16.555L126.588,219.638z"/>
	<linearGradient id="SVGID_35_" gradientUnits="userSpaceOnUse" x1="129.2339" y1="427.3223" x2="622.7896" y2="427.3223">
		<stop  offset="0" style="stop-color:#FFF9ED"/>
		<stop  offset="1" style="stop-color:#F5E9DE"/>
	</linearGradient>
	<linearGradient id="SVGID_36_" gradientUnits="userSpaceOnUse" x1="128.7339" y1="427.3223" x2="623.2896" y2="427.3223">
		<stop  offset="0" style="stop-color:#8C7D8B"/>
		<stop  offset="1" style="stop-color:#E5D1CD"/>
	</linearGradient>
	<path display="inline" fill="url(#SVGID_35_)" stroke="url(#SVGID_36_)" stroke-miterlimit="10" d="M130.399,222.403
		c0,0-8.12-27.932,18.513-41.248l215.005-87.366c0,0,32.153-9.094,47.092,25.982c14.941,35.077,208.188,500.49,208.188,500.49
		s15.589,33.452-18.189,50.991l-207.535,88.665c0,0-28.256,10.392-45.145-16.239L130.399,222.403z"/>
	<g display="inline">
		<path fill="#FBF5EB" d="M149.037,185.25l213.992-85.928c0,0,32.001-8.944,46.87,25.555
			c12.366,28.688,147.442,350.041,192.598,457.487c-46.4-111.727-180.104-433.608-192.433-462.549
			c-14.939-35.076-47.092-25.982-47.092-25.982l-215.005,87.366c-26.633,13.316-18.513,41.248-18.513,41.248l0.82,1.963
			C129.06,218.657,126.104,196.581,149.037,185.25z"/>
		<path fill="#FBF5EB" d="M618.544,620.985c2.896,9.19,7.065,32.644-19.542,46.296l-206.557,87.206c0,0-28.124,10.221-44.932-15.973
			L151.951,276.259l195.432,467.463c16.888,26.631,45.145,16.239,45.145,16.239l207.535-88.665
			C631.01,655.227,620.52,625.805,618.544,620.985z"/>
		<path fill="#FBF5EB" d="M618.544,620.985c-0.764-2.422-1.438-3.856-1.438-3.856s-5.463-13.001-14.609-34.766
			c9.837,23.688,15.756,37.941,15.756,37.941S618.364,620.545,618.544,620.985z"/>
		<path fill="#FBF5EB" d="M130.612,225.819l21.339,50.44l-21.677-51.85C130.463,225.306,130.612,225.819,130.612,225.819z"/>
	</g>
	<path display="inline" fill="none" stroke="#494949" stroke-miterlimit="10" d="M270.379,147.865c0,3.587-2.908,6.496-6.496,6.496
		c-3.587,0-6.495-2.908-6.495-6.496c0-3.587,2.908-6.495,6.495-6.495C267.472,141.37,270.379,144.278,270.379,147.865z"/>
	<path display="inline" fill="none" stroke="#494949" stroke-miterlimit="10" d="M268.614,147.865c0,2.612-2.117,4.73-4.73,4.73
		c-2.611,0-4.729-2.118-4.729-4.73c0-2.612,2.118-4.729,4.729-4.729C266.497,143.136,268.614,145.253,268.614,147.865z"/>
	<path display="inline" fill="none" stroke="#494949" stroke-miterlimit="10" d="M237.09,184.89c0,1.705-1.381,3.085-3.085,3.085
		s-3.085-1.38-3.085-3.085c0-1.704,1.381-3.084,3.085-3.084S237.09,183.187,237.09,184.89z"/>
	<path display="inline" fill="none" stroke="#494949" stroke-miterlimit="10" d="M235.469,184.89c0,0.81-0.655,1.465-1.464,1.465
		c-0.809,0-1.464-0.655-1.464-1.465c0-0.809,0.655-1.464,1.464-1.464C234.814,183.426,235.469,184.082,235.469,184.89z"/>
	<path display="inline" fill="none" stroke="#494949" stroke-miterlimit="10" d="M293.639,161.743
		c0.137,0.333-0.021,0.711-0.354,0.848l-41.908,17.22c-0.331,0.137-0.711-0.022-0.847-0.354l0,0
		c-0.136-0.333,0.022-0.711,0.354-0.848l41.907-17.22C293.124,161.252,293.503,161.412,293.639,161.743L293.639,161.743z"/>
	<linearGradient id="SVGID_37_" gradientUnits="userSpaceOnUse" x1="468.0815" y1="653.0215" x2="501.4139" y2="715.3533">
		<stop  offset="0" style="stop-color:#605252"/>
		<stop  offset="0.3448" style="stop-color:#605252"/>
		<stop  offset="0.4304" style="stop-color:#635555"/>
		<stop  offset="0.4969" style="stop-color:#6C5F5D"/>
		<stop  offset="0.557" style="stop-color:#7B6F6C"/>
		<stop  offset="0.6133" style="stop-color:#908780"/>
		<stop  offset="0.667" style="stop-color:#ACA59A"/>
		<stop  offset="0.7187" style="stop-color:#CECABA"/>
		<stop  offset="0.7679" style="stop-color:#F6F5DF"/>
		<stop  offset="0.7783" style="stop-color:#FFFFE8"/>
		<stop  offset="0.8389" style="stop-color:#FFFFE6"/>
		<stop  offset="0.8607" style="stop-color:#FFFDDF"/>
		<stop  offset="0.8762" style="stop-color:#FFFAD4"/>
		<stop  offset="0.8867" style="stop-color:#FFF6C6"/>
		<stop  offset="0.9248" style="stop-color:#FFF8D6"/>
		<stop  offset="0.9984" style="stop-color:#FFFFFE"/>
		<stop  offset="1" style="stop-color:#FFFFFF"/>
	</linearGradient>
	<path display="inline" fill="url(#SVGID_37_)" stroke="#494949" stroke-miterlimit="10" d="M511.368,685.381
		c0,14.349-11.633,25.982-25.982,25.982s-25.983-11.634-25.983-25.982c0-14.351,11.634-25.984,25.983-25.984
		S511.368,671.03,511.368,685.381z"/>
	<linearGradient id="SVGID_38_" gradientUnits="userSpaceOnUse" x1="462.7993" y1="685.3809" x2="507.9702" y2="685.3809">
		<stop  offset="0" style="stop-color:#B8AA72"/>
		<stop  offset="1" style="stop-color:#A1846E"/>
	</linearGradient>
	<path display="inline" fill="#FFF0D8" stroke="url(#SVGID_38_)" stroke-miterlimit="10" d="M507.47,685.381
		c0,12.197-9.888,22.085-22.085,22.085s-22.086-9.888-22.086-22.085s9.889-22.086,22.086-22.086S507.47,673.184,507.47,685.381z"/>
	<linearGradient id="SVGID_39_" gradientUnits="userSpaceOnUse" x1="457.4399" y1="685.3799" x2="513.3296" y2="685.3799">
		<stop  offset="0" style="stop-color:#E0D2C7"/>
		<stop  offset="1" style="stop-color:#F5E9DE"/>
	</linearGradient>
	<path display="inline" fill="none" stroke="url(#SVGID_39_)" stroke-miterlimit="10" d="M512.83,685.381
		c0,15.156-12.288,27.443-27.444,27.443c-15.157,0-27.445-12.287-27.445-27.443c0-15.157,12.288-27.445,27.445-27.445
		C500.542,657.936,512.83,670.224,512.83,685.381z"/>
	<linearGradient id="SVGID_40_" gradientUnits="userSpaceOnUse" x1="449.9312" y1="217.2041" x2="470.1304" y2="217.2041">
		<stop  offset="0" style="stop-color:#FFF9ED"/>
		<stop  offset="1" style="stop-color:#F5E9DE"/>
	</linearGradient>
	<linearGradient id="SVGID_41_" gradientUnits="userSpaceOnUse" x1="449.2778" y1="217.2041" x2="470.7837" y2="217.2041">
		<stop  offset="0" style="stop-color:#8C7D8B"/>
		<stop  offset="1" style="stop-color:#E5D1CD"/>
	</linearGradient>
	<polygon display="inline" fill="url(#SVGID_40_)" stroke="url(#SVGID_41_)" stroke-miterlimit="10" points="470.13,237.21 
		467.049,238.488 449.931,197.197 453.012,195.92 	"/>
	<path display="inline" fill="none" stroke="#494949" stroke-miterlimit="10" d="M137.188,238.641l-2.586,2.395l-1.727-4.181
		l2.531-2.526L137.188,238.641z"/>
	<linearGradient id="SVGID_42_" gradientUnits="userSpaceOnUse" x1="162.0903" y1="337.2944" x2="179.9023" y2="337.2944">
		<stop  offset="0" style="stop-color:#FFF9ED"/>
		<stop  offset="1" style="stop-color:#F5E9DE"/>
	</linearGradient>
	<linearGradient id="SVGID_43_" gradientUnits="userSpaceOnUse" x1="161.5903" y1="337.2944" x2="180.4023" y2="337.2944">
		<stop  offset="0" style="stop-color:#8C7D8B"/>
		<stop  offset="1" style="stop-color:#E5D1CD"/>
	</linearGradient>
	<path display="inline" fill="url(#SVGID_42_)" stroke="url(#SVGID_43_)" stroke-miterlimit="10" d="M179.759,353.429
		c0.391,0.93-0.046,2.001-0.977,2.392l0,0c-0.93,0.391-2.001-0.046-2.393-0.976l-14.157-33.685
		c-0.391-0.931,0.046-2.001,0.977-2.393l0,0c0.93-0.391,2.001,0.047,2.392,0.976L179.759,353.429z"/>
	<linearGradient id="SVGID_44_" gradientUnits="userSpaceOnUse" x1="138.9761" y1="276.6816" x2="152.4238" y2="276.6816">
		<stop  offset="0" style="stop-color:#FFF9ED"/>
		<stop  offset="1" style="stop-color:#F5E9DE"/>
	</linearGradient>
	<linearGradient id="SVGID_45_" gradientUnits="userSpaceOnUse" x1="138.4761" y1="276.6816" x2="152.9238" y2="276.6816">
		<stop  offset="0" style="stop-color:#8C7D8B"/>
		<stop  offset="1" style="stop-color:#E5D1CD"/>
	</linearGradient>
	<path display="inline" fill="url(#SVGID_44_)" stroke="url(#SVGID_45_)" stroke-miterlimit="10" d="M152.281,287.754
		c0.391,0.93-0.046,2.001-0.977,2.392l0,0c-0.93,0.391-2.001-0.046-2.393-0.976l-9.792-23.561c-0.391-0.931,0.046-2.001,0.977-2.393
		l0,0c0.93-0.391,2.001,0.047,2.392,0.976L152.281,287.754z"/>
	<linearGradient id="SVGID_46_" gradientUnits="userSpaceOnUse" x1="184.7441" y1="390.6401" x2="202.5562" y2="390.6401">
		<stop  offset="0" style="stop-color:#FFF9ED"/>
		<stop  offset="1" style="stop-color:#F5E9DE"/>
	</linearGradient>
	<linearGradient id="SVGID_47_" gradientUnits="userSpaceOnUse" x1="184.2441" y1="390.6401" x2="203.0562" y2="390.6401">
		<stop  offset="0" style="stop-color:#8C7D8B"/>
		<stop  offset="1" style="stop-color:#E5D1CD"/>
	</linearGradient>
	<path display="inline" fill="url(#SVGID_46_)" stroke="url(#SVGID_47_)" stroke-miterlimit="10" d="M202.413,406.774
		c0.392,0.931-0.046,2.001-0.976,2.392l0,0c-0.931,0.391-2.001-0.045-2.393-0.976l-14.157-33.684
		c-0.391-0.931,0.046-2.001,0.977-2.392l0,0c0.93-0.391,2,0.046,2.392,0.977L202.413,406.774z"/>
	<path display="inline" fill="none" stroke="#494949" stroke-miterlimit="10" d="M412.81,124.026l3.187-1.123l1.638,3.903
		l-3.178,1.138L412.81,124.026z"/>
	<path display="inline" fill="none" stroke="#494949" stroke-miterlimit="10" d="M342.507,729.754l-1.984,1.605l-2.688-6.429
		l2.014-1.536L342.507,729.754z"/>
	<linearGradient id="SVGID_48_" gradientUnits="userSpaceOnUse" x1="148.9116" y1="427.4219" x2="603.9331" y2="427.4219">
		<stop  offset="0" style="stop-color:#40C4FF"/>
		<stop  offset="1" style="stop-color:#2282DF"/>
	</linearGradient>
	<linearGradient id="SVGID_49_" gradientUnits="userSpaceOnUse" x1="148.2554" y1="427.4258" x2="604.5864" y2="427.4258">
		<stop  offset="0" style="stop-color:#8C7D8B"/>
		<stop  offset="1" style="stop-color:#E5D1CD"/>
	</linearGradient>
	<path display="inline" fill="url(#SVGID_48_)" stroke="url(#SVGID_49_)" stroke-miterlimit="10" d="M148.912,249.685
		l265.021-106.204l190,457.619L340.858,711.363L148.912,249.685z"/>
	<linearGradient id="SVGID_50_" gradientUnits="userSpaceOnUse" x1="148.2554" y1="427.4258" x2="604.5864" y2="427.4258">
		<stop  offset="0" style="stop-color:#8C7D8B"/>
		<stop  offset="1" style="stop-color:#E5D1CD"/>
	</linearGradient>
	<path display="inline" fill="#F9F9F9" stroke="url(#SVGID_50_)" stroke-miterlimit="10" d="M148.912,249.685l265.021-106.204
		l190,457.619L340.858,711.363L148.912,249.685z"/>
	<path display="inline" fill="none" stroke="#494949" stroke-miterlimit="10" d="M613.831,607.334h3.642l2.465,5.936l-3.57,0.178
		L613.831,607.334z"/>
	<path display="inline" fill="none" stroke="#494949" stroke-miterlimit="10" d="M169.555,261.832l-1.369,0.526l-1.155-3.004
		l1.369-0.526L169.555,261.832z"/>
	<path display="inline" fill="none" stroke="#494949" stroke-miterlimit="10" d="M165.774,263.284l-1.37,0.526l-0.747-1.943
		l1.37-0.526L165.774,263.284z"/>
	<path display="inline" fill="none" stroke="#494949" stroke-miterlimit="10" d="M173.336,260.378l-1.37,0.526l-2.139-5.566
		l1.369-0.526L173.336,260.378z"/>
	
		<rect x="174.069" y="250.405" transform="matrix(0.9334 -0.3588 0.3588 0.9334 -79.8445 79.7073)" display="inline" fill="none" stroke="#494949" stroke-miterlimit="10" width="1.467" height="9.086"/>
	
		<rect x="177.375" y="246.39" transform="matrix(0.9334 -0.3588 0.3588 0.9334 -78.6591 80.7145)" display="inline" fill="none" stroke="#494949" stroke-miterlimit="10" width="1.467" height="11.736"/>
	<g display="inline">
		<path fill="#494949" d="M277.733,217.611c-1.438,0.501-2.893-0.504-3.764-2.932c-0.864-2.48-0.256-4.203,1.238-4.724
			c1.54-0.537,2.917,0.535,3.733,2.878c0.871,2.504,0.412,4.212-1.196,4.772L277.733,217.611z M277.51,216.825
			c1.009-0.351,1.082-1.71,0.427-3.59c-0.631-1.812-1.498-2.844-2.54-2.481c-0.906,0.315-1.093,1.676-0.45,3.522
			c0.644,1.922,1.634,2.872,2.552,2.553L277.51,216.825z"/>
		<path fill="#494949" d="M283.375,207.251l0.229,0.657l-0.871,7.821l-1.019,0.355l0.915-7.621l-0.008-0.023l-3.602,1.254
			l-0.287-0.827L283.375,207.251z"/>
		<path fill="#494949" d="M287.752,214.123c-0.385,0.134-0.764-0.077-0.902-0.474c-0.146-0.419,0.035-0.812,0.42-0.946
			c0.408-0.142,0.771,0.062,0.917,0.481c0.138,0.396-0.016,0.793-0.424,0.935L287.752,214.123z M286.371,210.121
			c-0.385,0.134-0.763-0.078-0.901-0.474c-0.146-0.419,0.034-0.812,0.419-0.947c0.408-0.141,0.771,0.062,0.917,0.481
			c0.139,0.396-0.015,0.793-0.423,0.935L286.371,210.121z"/>
		<path fill="#494949" d="M289.241,206.25l-0.022,0.008l-1.039,1.137l-0.457-0.692l1.308-1.42l0.85-0.296l2.563,7.362l-0.963,0.336
			L289.241,206.25z"/>
		<path fill="#494949" d="M297.255,203.359l-2.809,0.978l0.367,1.968c0.162-0.082,0.313-0.16,0.585-0.254
			c0.577-0.201,1.176-0.27,1.723-0.157c0.688,0.117,1.389,0.597,1.72,1.548c0.501,1.438-0.268,2.913-1.865,3.469
			c-0.805,0.28-1.552,0.286-1.993,0.186l-0.015-0.846c0.369,0.075,1.047,0.092,1.728-0.145c0.929-0.324,1.531-1.219,1.173-2.212
			c-0.339-0.974-1.217-1.417-2.679-0.909c-0.43,0.15-0.747,0.298-1.003,0.438l-0.747-3.677l3.523-1.227L297.255,203.359z"/>
	</g>
	<path display="inline" fill="none" stroke="#494949" stroke-miterlimit="10" d="M404.264,165.722l-21.163,8.497l-3.524-8.775
		l21.164-8.497L404.264,165.722z"/>
	<path display="inline" fill="none" stroke="#494949" stroke-miterlimit="10" d="M398.535,166.371l-14.354,5.762l-2.381-5.931
		l14.354-5.763L398.535,166.371z"/>
	<path display="inline" fill="none" stroke="#494949" stroke-miterlimit="10" d="M405.198,163.695l-1.462,0.587l-2.382-5.931
		l1.463-0.587L405.198,163.695z"/>
	<circle display="inline" opacity="0.8" fill="#39C6F7" cx="207.247" cy="425.531" r="75.174"/>
	<circle display="inline" fill="#FFFFFF" cx="207.247" cy="425.531" r="44.575"/>
	<circle display="inline" opacity="0.8" fill="#39C6F7" cx="512.205" cy="279.286" r="75.174"/>
	<circle display="inline" fill="#FFFFFF" cx="512.206" cy="279.286" r="44.575"/>
	<circle display="inline" opacity="0.8" fill="#39C6F7" cx="562.718" cy="488.286" r="75.174"/>
	<circle display="inline" fill="#FFFFFF" cx="562.719" cy="488.286" r="44.575"/>
	<path display="inline" fill="none" stroke="#494949" stroke-miterlimit="10" d="M225.557,437.774
		c-2.793,4.246-18.667,12.898-18.667,12.898s-15.875-8.652-18.667-12.898c-5.129-7.798,0-32.487,0-32.487l18.667-4.896l18.667,4.896
		C225.557,405.287,230.686,429.977,225.557,437.774z"/>
	<path display="inline" fill="none" stroke="#03A9F4" stroke-width="1.5" stroke-miterlimit="10" d="M293.212,579.482"/>
	<polyline display="inline" fill="none" stroke="#494949" stroke-miterlimit="10" points="196.892,425.588 203.451,431.959 
		217.989,417.42 	"/>
	<circle display="inline" opacity="0.8" fill="#39C6F7" cx="315.247" cy="634.531" r="75.174"/>
	<circle display="inline" fill="#FFFFFF" cx="315.247" cy="634.531" r="44.575"/>
	<line display="inline" fill="none" stroke="#494949" stroke-miterlimit="10" x1="488.457" y1="266.16" x2="535.954" y2="266.16"/>
	<circle display="inline" fill="none" stroke="#494949" stroke-miterlimit="10" cx="532.797" cy="261.6" r="1.271"/>
	<circle display="inline" fill="none" stroke="#494949" stroke-miterlimit="10" cx="527.876" cy="261.6" r="1.271"/>
	<circle display="inline" fill="none" stroke="#494949" stroke-miterlimit="10" cx="522.953" cy="261.6" r="1.271"/>
	<g display="inline">
		<path fill="#494949" d="M504.195,278.216h0.849v2.912h0.019c0.136-0.241,0.347-0.463,0.608-0.598
			c0.251-0.155,0.549-0.241,0.867-0.241c0.627,0,1.63,0.386,1.63,1.997v2.777h-0.849v-2.681c0-0.762-0.281-1.388-1.081-1.388
			c-0.549,0-0.974,0.385-1.138,0.848c-0.048,0.116-0.058,0.241-0.058,0.405v2.815h-0.849L504.195,278.216L504.195,278.216z"/>
		<path fill="#494949" d="M510.53,279.277v1.118h1.216v0.646h-1.216v2.517c0,0.579,0.164,0.907,0.637,0.907
			c0.232,0,0.366-0.019,0.491-0.059l0.039,0.646c-0.164,0.058-0.425,0.116-0.753,0.116c-0.395,0-0.713-0.135-0.915-0.357
			c-0.232-0.26-0.329-0.674-0.329-1.225v-2.546h-0.723v-0.646h0.723v-0.859L510.53,279.277z"/>
		<path fill="#494949" d="M513.722,279.277v1.118h1.214v0.646h-1.214v2.517c0,0.579,0.164,0.907,0.636,0.907
			c0.231,0,0.366-0.019,0.491-0.059l0.04,0.646c-0.165,0.058-0.426,0.116-0.753,0.116c-0.396,0-0.714-0.135-0.917-0.357
			c-0.229-0.26-0.327-0.674-0.327-1.225v-2.546h-0.723v-0.646h0.723v-0.859L513.722,279.277z"/>
		<path fill="#494949" d="M515.892,281.919c0-0.598-0.01-1.08-0.039-1.524h0.762l0.049,0.801h0.019
			c0.338-0.579,0.897-0.907,1.649-0.907c1.137,0,1.986,0.955,1.986,2.372c0,1.678-1.032,2.507-2.121,2.507
			c-0.627,0-1.158-0.27-1.438-0.732h-0.019v2.535h-0.849V281.919L515.892,281.919z M516.74,283.163c0,0.116,0.01,0.241,0.038,0.348
			c0.146,0.587,0.666,0.993,1.263,0.993c0.897,0,1.419-0.732,1.419-1.803c0-0.936-0.482-1.735-1.38-1.735
			c-0.578,0-1.128,0.404-1.292,1.041c-0.019,0.115-0.048,0.241-0.048,0.347V283.163L516.74,283.163z"/>
		<path fill="#494949" d="M521.735,285.168c-0.328,0-0.559-0.26-0.559-0.598c0-0.356,0.24-0.608,0.568-0.608
			c0.348,0,0.568,0.251,0.568,0.608c0,0.337-0.222,0.598-0.568,0.598H521.735z M521.745,281.765c-0.328,0-0.559-0.261-0.559-0.598
			c0-0.356,0.241-0.608,0.569-0.608c0.347,0,0.568,0.251,0.568,0.608c0,0.337-0.222,0.598-0.568,0.598H521.745z"/>
		<path fill="#494949" d="M522.661,285.449l2.681-6.992h0.665l-2.699,6.992H522.661z"/>
		<path fill="#494949" d="M525.968,285.449l2.681-6.992h0.666l-2.701,6.992H525.968z"/>
	</g>
	<path display="inline" fill="none" stroke="#494949" stroke-miterlimit="10" d="M500.829,285.678c0,0.292-0.236,0.527-0.527,0.527
		h-4.414c-0.291,0-0.528-0.236-0.528-0.527v-4.151c0-0.291,0.237-0.527,0.528-0.527h4.414c0.291,0,0.527,0.236,0.527,0.527V285.678
		L500.829,285.678z"/>
	<path display="inline" fill="none" stroke="#494949" stroke-miterlimit="10" d="M499.734,280.979v-1.633
		c0-0.906-0.734-1.64-1.64-1.64s-1.64,0.734-1.64,1.64v1.611"/>
	<path display="inline" fill="none" stroke="#494949" stroke-miterlimit="10" d="M498.267,283.588
		c0.144-0.065,0.244-0.209,0.244-0.379c0-0.229-0.187-0.417-0.417-0.417s-0.416,0.187-0.416,0.417c0,0.169,0.1,0.313,0.243,0.379
		c-0.191,0.4-0.464,1-0.379,1c0.239,0,0.95,0,1.102,0C498.736,284.587,498.46,283.988,498.267,283.588z"/>
	<path display="inline" fill="none" stroke="#494949" stroke-miterlimit="10" d="M508.311,318.436"/>
	<path display="inline" fill="none" stroke="#494949" stroke-miterlimit="10" d="M508.127,314.775"/>
	<path display="inline" fill="none" stroke="#494949" stroke-miterlimit="10" d="M535.864,299.807c0,0.69-0.559,1.249-1.249,1.249
		h-44.909c-0.689,0-1.249-0.559-1.249-1.249v-41.041c0-0.69,0.559-1.249,1.249-1.249h44.909c0.69,0,1.249,0.559,1.249,1.249V299.807
		L535.864,299.807z"/>
	
		<rect x="293.596" y="611.934" display="inline" fill="none" stroke="#494949" stroke-miterlimit="10" width="35.396" height="15.345"/>
	<polyline display="inline" fill="none" stroke="#494949" stroke-miterlimit="10" points="320.809,642.42 293.596,642.42 
		293.596,627.074 328.992,627.074 328.992,631.063 	"/>
	<polyline display="inline" fill="none" stroke="#494949" stroke-miterlimit="10" points="328.992,653.774 328.992,657.561 
		293.596,657.561 293.596,642.216 320.809,642.216 	"/>
	<path display="inline" fill="none" stroke="#494949" stroke-miterlimit="10" d="M303.008,619.606c0,1.356-1.099,2.455-2.455,2.455
		l0,0c-1.356,0-2.455-1.099-2.455-2.455l0,0c0-1.356,1.099-2.455,2.455-2.455l0,0C301.909,617.151,303.008,618.25,303.008,619.606
		L303.008,619.606z"/>
	<path display="inline" fill="none" stroke="#494949" stroke-miterlimit="10" d="M303.008,634.747c0,1.355-1.099,2.454-2.455,2.454
		l0,0c-1.356,0-2.455-1.099-2.455-2.454l0,0c0-1.355,1.099-2.456,2.455-2.456l0,0C301.909,632.291,303.008,633.392,303.008,634.747
		L303.008,634.747z"/>
	<path display="inline" fill="none" stroke="#494949" stroke-miterlimit="10" d="M303.008,649.888c0,1.355-1.099,2.454-2.455,2.454
		l0,0c-1.356,0-2.455-1.099-2.455-2.454l0,0c0-1.356,1.099-2.455,2.455-2.455l0,0C301.909,647.433,303.008,648.531,303.008,649.888
		L303.008,649.888z"/>
	<circle display="inline" fill="none" stroke="#494949" stroke-miterlimit="10" cx="331.857" cy="642.419" r="11.355"/>
	
		<line display="inline" fill="none" stroke="#494949" stroke-miterlimit="10" x1="326.128" y1="637.201" x2="336.921" y2="647.995"/>
	
		<line display="inline" fill="none" stroke="#494949" stroke-miterlimit="10" x1="336.921" y1="637.201" x2="326.128" y2="647.995"/>
	<path display="inline" fill="none" stroke="#494949" stroke-miterlimit="10" d="M577.08,493.686c0,0,2.115,11.842-17.762,21.568
		c0,0-17.973-5.498-17.973-21.568s0-17.973,0-17.973l17.761-2.749l7.418,1.049"/>
	<path display="inline" fill="none" stroke="#494949" stroke-miterlimit="10" d="M564.193,499.353c0,0.519-0.421,0.938-0.939,0.938
		h-7.859c-0.519,0-0.939-0.42-0.939-0.938v-7.392c0-0.518,0.421-0.938,0.939-0.938h7.859c0.519,0,0.939,0.421,0.939,0.938V499.353
		L564.193,499.353z"/>
	<path display="inline" fill="none" stroke="#494949" stroke-miterlimit="10" d="M562.242,490.985v-2.909
		c0-1.612-1.307-2.918-2.918-2.918c-1.612,0-2.918,1.306-2.918,2.918v2.869"/>
	<path display="inline" fill="none" stroke="#494949" stroke-miterlimit="10" d="M559.104,495.552
		c-0.344-0.167-0.581-0.521-0.581-0.931c0-0.572,0.463-1.037,1.035-1.037c0.573,0,1.036,0.465,1.036,1.037
		c0,0.398-0.225,0.743-0.554,0.917l0.009,0.119c0.48,0.979,1.1,2.391,0.875,2.391c-0.374,0-2.143,0-2.739,0
		c-0.205,0,0.443-1.412,0.918-2.391L559.104,495.552z"/>
	<circle display="inline" fill="none" stroke="#494949" stroke-miterlimit="10" cx="576.466" cy="477.172" r="10.255"/>
	<path display="inline" fill="none" stroke="#494949" stroke-miterlimit="10" d="M576.911,487.343"/>
	<path display="inline" fill="none" stroke="#494949" stroke-miterlimit="10" d="M543.861,494.829"/>
	<path display="inline" fill="none" stroke="#494949" stroke-miterlimit="10" d="M571.317,488.304"/>
	<path display="inline" fill="none" stroke="#494949" stroke-miterlimit="10" d="M564.244,492.289"/>
	<path display="inline" fill="none" stroke="#494949" stroke-miterlimit="10" d="M554.445,499.34"/>
	<path display="inline" fill="none" stroke="#494949" stroke-miterlimit="10" d="M543.861,493.369"/>
	<path display="inline" fill="none" stroke="#494949" stroke-miterlimit="10" d="M569.88,485.056"/>
	<path display="inline" fill="none" stroke="#494949" stroke-miterlimit="10" d="M562.199,489.479"/>
	<path display="inline" fill="none" stroke="#494949" stroke-miterlimit="10" d="M554.238,495.207"/>
	<path display="inline" fill="none" stroke="#494949" stroke-miterlimit="10" d="M543.861,489.087"/>
	<polyline display="inline" fill="none" stroke="#494949" stroke-miterlimit="10" points="572.195,486.499 567.395,497.339 
		575.768,497.339 576.911,492.376 578.243,497.339 587.186,497.339 580.738,486.499 	"/>
	<g display="inline">
		<path fill="#494949" d="M571.921,478.208l0.707-0.069c0.043,0.238,0.13,0.413,0.26,0.524c0.131,0.111,0.306,0.167,0.528,0.167
			c0.234,0,0.411-0.05,0.529-0.149c0.119-0.099,0.18-0.215,0.18-0.348c0-0.085-0.026-0.157-0.075-0.218
			c-0.051-0.059-0.138-0.111-0.264-0.156c-0.084-0.029-0.278-0.082-0.581-0.157c-0.392-0.097-0.665-0.216-0.822-0.356
			c-0.221-0.198-0.332-0.44-0.332-0.727c0-0.183,0.052-0.354,0.155-0.516c0.104-0.158,0.255-0.28,0.451-0.364
			c0.196-0.083,0.432-0.125,0.709-0.125c0.453,0,0.793,0.099,1.021,0.297c0.229,0.199,0.35,0.464,0.361,0.795l-0.729,0.032
			c-0.03-0.186-0.099-0.318-0.2-0.4c-0.102-0.081-0.257-0.121-0.462-0.121c-0.211,0-0.377,0.044-0.496,0.131
			c-0.077,0.055-0.116,0.13-0.116,0.223c0,0.086,0.037,0.158,0.109,0.22c0.092,0.077,0.313,0.157,0.668,0.241
			c0.354,0.083,0.616,0.17,0.787,0.259c0.169,0.09,0.302,0.212,0.397,0.366c0.097,0.156,0.145,0.347,0.145,0.575
			c0,0.206-0.058,0.4-0.173,0.58c-0.114,0.181-0.276,0.313-0.486,0.402c-0.21,0.088-0.472,0.132-0.785,0.132
			c-0.455,0-0.806-0.106-1.05-0.317C572.115,478.918,571.968,478.61,571.921,478.208z"/>
		<path fill="#494949" d="M575.281,478.208l0.708-0.069c0.042,0.238,0.129,0.413,0.261,0.524c0.129,0.111,0.305,0.167,0.526,0.167
			c0.234,0,0.41-0.05,0.53-0.149c0.119-0.099,0.178-0.215,0.178-0.348c0-0.085-0.025-0.157-0.074-0.218
			c-0.051-0.06-0.138-0.111-0.262-0.156c-0.086-0.029-0.28-0.082-0.583-0.157c-0.391-0.097-0.664-0.216-0.822-0.356
			c-0.222-0.198-0.332-0.44-0.332-0.727c0-0.183,0.052-0.354,0.157-0.516c0.103-0.158,0.253-0.28,0.449-0.364
			c0.195-0.083,0.432-0.125,0.709-0.125c0.453,0,0.794,0.099,1.021,0.297c0.229,0.199,0.35,0.464,0.361,0.795l-0.728,0.032
			c-0.032-0.186-0.099-0.318-0.201-0.4c-0.103-0.081-0.257-0.121-0.461-0.121c-0.212,0-0.377,0.044-0.496,0.131
			c-0.078,0.055-0.116,0.13-0.116,0.223c0,0.086,0.035,0.158,0.107,0.22c0.093,0.077,0.315,0.157,0.67,0.241
			c0.354,0.083,0.616,0.17,0.785,0.259c0.17,0.09,0.304,0.212,0.399,0.366c0.096,0.156,0.144,0.347,0.144,0.575
			c0,0.206-0.059,0.4-0.172,0.58c-0.115,0.181-0.277,0.313-0.488,0.402c-0.209,0.088-0.471,0.132-0.783,0.132
			c-0.457,0-0.806-0.106-1.052-0.317C575.474,478.918,575.329,478.61,575.281,478.208z"/>
		<path fill="#494949" d="M578.844,479.381v-3.575h0.729v2.968h1.81v0.607H578.844L578.844,479.381z"/>
	</g>
</g>
<g id="Layer_5" display="none">
</g>
<g id="path" display="none">
	<path display="inline" fill="none" stroke="#494949" stroke-width="2" stroke-miterlimit="10" d="M125.157,218.444
		c0,0-8.325-28.638,18.981-42.291l220.447-89.578c0,0,32.967-9.325,48.285,26.64c15.319,35.963,213.456,513.155,213.456,513.155
		s15.984,34.3-18.649,52.282l-212.786,90.909c0,0-28.973,10.655-46.289-16.65L125.157,218.444z"/>
	<path display="inline" fill="none" stroke="#494949" stroke-miterlimit="10" d="M130.399,222.403c0,0-8.12-27.932,18.513-41.248
		l215.005-87.366c0,0,32.153-9.094,47.092,25.982c14.941,35.077,208.188,500.49,208.188,500.49s15.589,33.452-18.189,50.991
		l-207.535,88.665c0,0-28.256,10.392-45.145-16.239L130.399,222.403z"/>
	<path display="inline" fill="none" stroke="#494949" stroke-miterlimit="10" d="M126.588,219.638c0,0-8.278-28.477,18.874-42.051
		l219.194-89.069c0,0,32.779-9.272,48.011,26.488c15.231,35.76,212.243,510.24,212.243,510.24s15.894,34.106-18.542,51.986
		L394.79,767.625c0,0-28.809,10.595-46.026-16.555L126.588,219.638z"/>
	<path display="inline" fill="none" stroke="#494949" stroke-miterlimit="10" d="M270.379,147.865c0,3.587-2.908,6.496-6.496,6.496
		c-3.587,0-6.495-2.908-6.495-6.496c0-3.587,2.908-6.495,6.495-6.495C267.472,141.37,270.379,144.278,270.379,147.865z"/>
	<path display="inline" fill="none" stroke="#494949" stroke-miterlimit="10" d="M268.614,147.865c0,2.612-2.117,4.73-4.73,4.73
		c-2.611,0-4.729-2.118-4.729-4.73c0-2.612,2.118-4.729,4.729-4.729C266.497,143.136,268.614,145.253,268.614,147.865z"/>
	<path display="inline" fill="none" stroke="#494949" stroke-miterlimit="10" d="M237.09,184.89c0,1.705-1.381,3.085-3.085,3.085
		s-3.085-1.38-3.085-3.085c0-1.704,1.381-3.084,3.085-3.084S237.09,183.187,237.09,184.89z"/>
	<path display="inline" fill="none" stroke="#494949" stroke-miterlimit="10" d="M235.469,184.89c0,0.81-0.655,1.465-1.464,1.465
		c-0.809,0-1.464-0.655-1.464-1.465c0-0.809,0.655-1.464,1.464-1.464C234.814,183.426,235.469,184.082,235.469,184.89z"/>
	<path display="inline" fill="none" stroke="#494949" stroke-miterlimit="10" d="M293.639,161.743
		c0.137,0.333-0.021,0.711-0.354,0.848l-41.908,17.22c-0.331,0.137-0.711-0.022-0.847-0.354l0,0
		c-0.136-0.333,0.022-0.711,0.354-0.848l41.907-17.22C293.124,161.252,293.503,161.412,293.639,161.743L293.639,161.743z"/>
	<path display="inline" fill="none" stroke="#494949" stroke-miterlimit="10" d="M507.47,685.381
		c0,12.197-9.888,22.085-22.085,22.085s-22.086-9.888-22.086-22.085s9.889-22.086,22.086-22.086S507.47,673.184,507.47,685.381z"/>
	<path display="inline" fill="none" stroke="#494949" stroke-miterlimit="10" d="M511.368,685.381
		c0,14.349-11.633,25.982-25.982,25.982s-25.983-11.634-25.983-25.982c0-14.351,11.634-25.984,25.983-25.984
		S511.368,671.03,511.368,685.381z"/>
	<path display="inline" fill="none" stroke="#494949" stroke-miterlimit="10" d="M512.83,685.381
		c0,15.156-12.288,27.443-27.444,27.443c-15.157,0-27.445-12.287-27.445-27.443c0-15.157,12.288-27.445,27.445-27.445
		C500.542,657.936,512.83,670.224,512.83,685.381z"/>
	<path display="inline" fill="none" stroke="#494949" stroke-miterlimit="10" d="M148.912,249.685l265.021-106.204l190,457.619
		L340.858,711.363L148.912,249.685z"/>
	
		<rect x="458.363" y="194.855" transform="matrix(0.9238 -0.383 0.383 0.9238 -48.1103 192.7387)" display="inline" fill="none" stroke="#494949" stroke-miterlimit="10" width="3.335" height="44.698"/>
	<path display="inline" fill="none" stroke="#494949" stroke-miterlimit="10" d="M137.188,238.641l-2.586,2.395l-1.727-4.181
		l2.531-2.526L137.188,238.641z"/>
	<path display="inline" fill="none" stroke="#494949" stroke-miterlimit="10" d="M179.759,353.429
		c0.391,0.93-0.046,2.001-0.977,2.392l0,0c-0.93,0.391-2.001-0.046-2.393-0.976l-14.157-33.685
		c-0.391-0.931,0.046-2.001,0.977-2.393l0,0c0.93-0.391,2.001,0.047,2.392,0.976L179.759,353.429z"/>
	<path display="inline" fill="none" stroke="#494949" stroke-miterlimit="10" d="M152.281,287.754
		c0.391,0.93-0.046,2.001-0.977,2.392l0,0c-0.93,0.391-2.001-0.046-2.393-0.976l-9.792-23.561c-0.391-0.931,0.046-2.001,0.977-2.393
		l0,0c0.93-0.391,2.001,0.047,2.392,0.976L152.281,287.754z"/>
	<path display="inline" fill="none" stroke="#494949" stroke-miterlimit="10" d="M202.413,406.774
		c0.392,0.931-0.046,2.001-0.976,2.392l0,0c-0.931,0.391-2.001-0.045-2.393-0.976l-14.157-33.684
		c-0.391-0.931,0.046-2.001,0.977-2.392l0,0c0.93-0.391,2,0.046,2.392,0.977L202.413,406.774z"/>
	<path display="inline" fill="none" stroke="#494949" stroke-miterlimit="10" d="M412.81,124.026l3.187-1.123l1.638,3.903
		l-3.178,1.138L412.81,124.026z"/>
	<path display="inline" fill="none" stroke="#494949" stroke-miterlimit="10" d="M342.507,729.754l-1.984,1.605l-2.688-6.429
		l2.014-1.536L342.507,729.754z"/>
	<path display="inline" fill="none" stroke="#494949" stroke-miterlimit="10" d="M613.831,607.334h3.642l2.465,5.936l-3.57,0.178
		L613.831,607.334z"/>
	<path display="inline" fill="none" stroke="#494949" stroke-miterlimit="10" d="M169.555,261.832l-1.369,0.526l-1.155-3.004
		l1.369-0.526L169.555,261.832z"/>
	<path display="inline" fill="none" stroke="#494949" stroke-miterlimit="10" d="M165.774,263.284l-1.37,0.526l-0.747-1.943
		l1.37-0.526L165.774,263.284z"/>
	<path display="inline" fill="none" stroke="#494949" stroke-miterlimit="10" d="M173.336,260.378l-1.37,0.526l-2.139-5.566
		l1.369-0.526L173.336,260.378z"/>
	
		<rect x="174.069" y="250.405" transform="matrix(0.9334 -0.3588 0.3588 0.9334 -79.8445 79.7073)" display="inline" fill="none" stroke="#494949" stroke-miterlimit="10" width="1.467" height="9.086"/>
	
		<rect x="177.375" y="246.39" transform="matrix(0.9334 -0.3588 0.3588 0.9334 -78.6591 80.7145)" display="inline" fill="none" stroke="#494949" stroke-miterlimit="10" width="1.467" height="11.736"/>
	<g display="inline">
		<path fill="#494949" d="M277.733,217.611c-1.438,0.501-2.893-0.504-3.764-2.932c-0.864-2.48-0.256-4.203,1.238-4.724
			c1.54-0.537,2.917,0.535,3.733,2.878c0.871,2.504,0.412,4.212-1.196,4.772L277.733,217.611z M277.51,216.825
			c1.009-0.351,1.082-1.71,0.427-3.59c-0.631-1.812-1.498-2.844-2.54-2.481c-0.906,0.315-1.093,1.676-0.45,3.522
			c0.644,1.922,1.634,2.872,2.552,2.553L277.51,216.825z"/>
		<path fill="#494949" d="M283.375,207.251l0.229,0.657l-0.871,7.821l-1.019,0.355l0.915-7.621l-0.008-0.023l-3.602,1.254
			l-0.287-0.827L283.375,207.251z"/>
		<path fill="#494949" d="M287.752,214.123c-0.385,0.134-0.764-0.077-0.902-0.474c-0.146-0.419,0.035-0.812,0.42-0.946
			c0.408-0.142,0.771,0.062,0.917,0.481c0.138,0.396-0.016,0.793-0.424,0.935L287.752,214.123z M286.371,210.121
			c-0.385,0.134-0.763-0.078-0.901-0.474c-0.146-0.419,0.034-0.812,0.419-0.947c0.408-0.141,0.771,0.062,0.917,0.481
			c0.139,0.396-0.015,0.793-0.423,0.935L286.371,210.121z"/>
		<path fill="#494949" d="M289.241,206.25l-0.022,0.008l-1.039,1.137l-0.457-0.692l1.308-1.42l0.85-0.296l2.563,7.362l-0.963,0.336
			L289.241,206.25z"/>
		<path fill="#494949" d="M297.255,203.359l-2.809,0.978l0.367,1.968c0.162-0.082,0.313-0.16,0.585-0.254
			c0.577-0.201,1.176-0.27,1.723-0.157c0.688,0.117,1.389,0.597,1.72,1.548c0.501,1.438-0.268,2.913-1.865,3.469
			c-0.805,0.28-1.552,0.286-1.993,0.186l-0.015-0.846c0.369,0.075,1.047,0.092,1.728-0.145c0.929-0.324,1.531-1.219,1.173-2.212
			c-0.339-0.974-1.217-1.417-2.679-0.909c-0.43,0.15-0.747,0.298-1.003,0.438l-0.747-3.677l3.523-1.227L297.255,203.359z"/>
	</g>
	<path display="inline" fill="none" stroke="#494949" stroke-miterlimit="10" d="M404.264,165.722l-21.163,8.497l-3.524-8.775
		l21.164-8.497L404.264,165.722z"/>
	<path display="inline" fill="none" stroke="#494949" stroke-miterlimit="10" d="M398.535,166.371l-14.354,5.762l-2.381-5.931
		l14.354-5.763L398.535,166.371z"/>
	<path display="inline" fill="none" stroke="#494949" stroke-miterlimit="10" d="M405.198,163.695l-1.462,0.587l-2.382-5.931
		l1.463-0.587L405.198,163.695z"/>
</g>
</svg>
