<?xml version="1.0" encoding="utf-8"?>
<!-- Generator: Adobe Illustrator 16.0.0, SVG Export Plug-In . SVG Version: 6.00 Build 0)  -->
<!DOCTYPE svg PUBLIC "-//W3C//DTD SVG 1.1//EN" "http://www.w3.org/Graphics/SVG/1.1/DTD/svg11.dtd">
<svg version="1.1" id="Layer_1" xmlns="http://www.w3.org/2000/svg" xmlns:xlink="http://www.w3.org/1999/xlink" x="0px" y="0px"
	 width="350px" height="350px" viewBox="0 0 350 350" enable-background="new 0 0 350 350" xml:space="preserve">
<circle display="none" fill="none" stroke="#E0E0E0" stroke-width="3" stroke-miterlimit="10" cx="176.313" cy="175.637" r="150.971"/>
<path fill="none" stroke="#FFFFFF" stroke-width="4" stroke-miterlimit="10" stroke-dasharray="24,14" d="M249.077,297.593
	c29.506,1.082,56.746-18.56,64.151-48.354c7.679-30.874-8.567-62.091-36.977-74.098l4.152,21.359"/>
<path fill="none" stroke="#FFFFFF" stroke-width="4" stroke-miterlimit="10" d="M210.691,296.535l14.486-4.521
	c-27.623-12.389-43.275-43.134-35.714-73.548c7.397-29.754,34.575-49.381,64.036-48.358"/>
<path fill="none" stroke="#FFFFFF" stroke-width="4" stroke-miterlimit="10" d="M234.988,155.085"/>
<line fill="none" stroke="#FFFFFF" stroke-width="4" stroke-miterlimit="10" x1="289.533" y1="169.209" x2="273.527" y2="173.376"/>
<line fill="none" stroke="#FFFFFF" stroke-width="4" stroke-miterlimit="10" x1="222.708" y1="279.075" x2="228.459" y2="292.823"/>
<line fill="none" stroke="#FFFFFF" stroke-width="4" stroke-miterlimit="10" x1="39.896" y1="108.754" x2="232.077" y2="108.754"/>
<circle fill="none" stroke="#FFFFFF" stroke-width="4" stroke-miterlimit="10" cx="56.729" cy="90.306" r="5.14"/>
<circle fill="none" stroke="#FFFFFF" stroke-width="4" stroke-miterlimit="10" cx="76.828" cy="90.306" r="5.14"/>
<circle fill="none" stroke="#FFFFFF" stroke-width="4" stroke-miterlimit="10" cx="96.934" cy="90.306" r="5.14"/>
<path fill="none" stroke="#FFFFFF" stroke-width="4" stroke-miterlimit="10" d="M189.643,249.947H44.95
	c-2.791,0-5.054-2.264-5.054-5.055V78.835c0-2.79,2.262-5.052,5.054-5.052h181.711c2.792,0,5.054,2.262,5.054,5.052v93.563"/>
<polyline fill="none" stroke="#FFFFFF" stroke-width="4" stroke-miterlimit="10" points="117.774,192.203 101.554,182.838 
	85.334,173.473 101.554,164.109 117.774,154.744 "/>
<polyline fill="none" stroke="#FFFFFF" stroke-width="4" stroke-miterlimit="10" points="147.521,192.203 163.74,182.838 
	179.96,173.473 163.74,164.109 147.521,154.744 "/>
<line fill="none" stroke="#FFFFFF" stroke-width="4" stroke-miterlimit="10" x1="125.233" y1="196.857" x2="138.056" y2="148.659"/>
</svg>
