<?xml version="1.0" encoding="utf-8"?>
<!-- Generator: Adobe Illustrator 16.0.0, SVG Export Plug-In . SVG Version: 6.00 Build 0)  -->
<!DOCTYPE svg PUBLIC "-//W3C//DTD SVG 1.1//EN" "http://www.w3.org/Graphics/SVG/1.1/DTD/svg11.dtd">
<svg version="1.1" id="Layer_1" xmlns="http://www.w3.org/2000/svg" xmlns:xlink="http://www.w3.org/1999/xlink" x="0px" y="0px"
	 width="350px" height="350px" viewBox="0 0 350 350" enable-background="new 0 0 350 350" xml:space="preserve">
<circle display="none" fill="none" stroke="#E0E0E0" stroke-width="3" stroke-miterlimit="10" cx="176.313" cy="175.637" r="150.971"/>
<path fill="none" stroke="#FFFFFF" stroke-width="4" stroke-miterlimit="10" d="M308.686,253.5c0,5.522-4.478,10-10,10h-243
	c-5.523,0-10-4.478-10-10v-169c0-5.523,4.477-10,10-10h243c5.522,0,10,4.477,10,10V253.5z"/>
<rect x="45.685" y="88" fill="none" stroke="#FFFFFF" stroke-width="4" stroke-miterlimit="10" width="263" height="149"/>
<line fill="none" stroke="#FFFFFF" stroke-width="4" stroke-miterlimit="10" x1="161.26" y1="112" x2="266.346" y2="112"/>
<line fill="none" stroke="#FFFFFF" stroke-width="4" stroke-miterlimit="10" x1="161.26" y1="139" x2="266.346" y2="139"/>
<line fill="none" stroke="#FFFFFF" stroke-width="4" stroke-miterlimit="10" x1="95.118" y1="169" x2="266.346" y2="169"/>
<line fill="none" stroke="#FFFFFF" stroke-width="4" stroke-miterlimit="10" x1="94.5" y1="193" x2="266.346" y2="193"/>
<rect x="97.278" y="107" fill="none" stroke="#FFFFFF" stroke-width="4" stroke-miterlimit="10" width="49" height="43.5"/>
<circle fill="#FFFFFF" cx="283" cy="250.167" r="5.167"/>
<circle fill="none" stroke="#FFFFFF" stroke-width="4" stroke-miterlimit="10" cx="121.778" cy="123.667" r="5.667"/>
<path fill="none" stroke="#FFFFFF" stroke-width="4" stroke-miterlimit="10" d="M110.611,140.5c0-6.167,5-11.167,11.167-11.167
	c6.167,0,11.167,5,11.167,11.167"/>
<path fill="#FFFFFF" d="M148,213.5c0,3.037-2.462,5.5-5.5,5.5h-41.846c-3.038,0-5.5-2.463-5.5-5.5l0,0c0-3.037,2.462-5.5,5.5-5.5
	H142.5C145.538,208,148,210.463,148,213.5L148,213.5z"/>
<path fill="none" stroke="#FFFFFF" stroke-width="4" stroke-miterlimit="10" d="M128.407,291c0-15.464,21.838-28,48.778-28
	c26.938,0,48.777,12.536,48.777,28"/>
</svg>
