<?xml version="1.0" encoding="utf-8"?>
<!-- Generator: Adobe Illustrator 16.0.0, SVG Export Plug-In . SVG Version: 6.00 Build 0)  -->
<!DOCTYPE svg PUBLIC "-//W3C//DTD SVG 1.1//EN" "http://www.w3.org/Graphics/SVG/1.1/DTD/svg11.dtd">
<svg version="1.1" id="Layer_1" xmlns="http://www.w3.org/2000/svg" xmlns:xlink="http://www.w3.org/1999/xlink" x="0px" y="0px"
	 width="350px" height="350px" viewBox="0 0 350 350" enable-background="new 0 0 350 350" xml:space="preserve">
<circle display="none" fill="none" stroke="#E0E0E0" stroke-width="3" stroke-miterlimit="10" cx="176.313" cy="175.637" r="150.971"/>
<polyline fill="none" stroke="#FFFFFF" stroke-width="4" stroke-miterlimit="10" points="219.022,272.078 176.928,296.383 
	80.015,240.431 80.015,128.523 176.928,72.57 273.841,128.523 273.841,205.561 "/>
<polyline fill="none" stroke="#FFFFFF" stroke-width="4" stroke-miterlimit="10" stroke-dasharray="12,6" points="88.913,279.136 
	50.942,257.216 50.942,215.056 "/>
<polyline fill="none" stroke="#FFFFFF" stroke-width="4" stroke-miterlimit="10" points="128.471,66.977 176.928,39 226.979,67.898 
	"/>
<polyline fill="none" stroke="#FFFFFF" stroke-width="4" stroke-miterlimit="10" points="80.015,128.523 176.928,184.478 
	176.928,271.529 "/>
<path fill="none" stroke="#FFFFFF" stroke-width="4" stroke-miterlimit="10" d="M234.394,238.789"/>
<path fill="none" stroke="#FFFFFF" stroke-width="4" stroke-miterlimit="10" d="M234.394,151.736"/>
<path fill="none" stroke="#FFFFFF" stroke-width="4" stroke-miterlimit="10" d="M137.48,95.783"/>
<line fill="none" stroke="#FFFFFF" stroke-width="4" stroke-miterlimit="10" x1="176.928" y1="184.478" x2="240.086" y2="145.946"/>
<circle fill="none" stroke="#FFFFFF" stroke-width="4" stroke-miterlimit="10" cx="243.778" cy="236.251" r="42.468"/>
<path fill="none" stroke="#FFFFFF" stroke-width="4" stroke-miterlimit="10" d="M227.248,211.397
	c8.918-5.931,19.862-6.436,28.938-2.299"/>
<rect x="276.629" y="274.917" transform="matrix(0.8327 -0.5538 0.5538 0.8327 -115.2577 205.0566)" fill="none" stroke="#FFFFFF" stroke-width="4" stroke-miterlimit="10" width="10.115" height="36.667"/>
</svg>
