<?xml version="1.0" encoding="utf-8"?>
<!-- Generator: Adobe Illustrator 16.0.0, SVG Export Plug-In . SVG Version: 6.00 Build 0)  -->
<!DOCTYPE svg PUBLIC "-//W3C//DTD SVG 1.1//EN" "http://www.w3.org/Graphics/SVG/1.1/DTD/svg11.dtd">
<svg version="1.1" id="Layer_1" xmlns="http://www.w3.org/2000/svg" xmlns:xlink="http://www.w3.org/1999/xlink" x="0px" y="0px"
	 width="350px" height="350px" viewBox="0 0 350 350" enable-background="new 0 0 350 350" xml:space="preserve">
<g>
	<circle fill="none" stroke="#FFFFFF" stroke-width="4" stroke-miterlimit="10" cx="176.738" cy="119.435" r="17.47"/>
	<circle fill="none" stroke="#FFFFFF" stroke-width="4" stroke-miterlimit="10" cx="54.649" cy="121.782" r="17.47"/>
	<circle fill="none" stroke="#FFFFFF" stroke-width="4" stroke-miterlimit="10" cx="297.261" cy="121.782" r="17.47"/>
	<circle fill="#FFFFFF" stroke="#FFFFFF" stroke-miterlimit="10" cx="176.738" cy="119.436" r="5.726"/>
	<path fill="none" stroke="#FFFFFF" stroke-width="4" stroke-miterlimit="10" d="M162.71,145.843
		c-8.403-4.71-14.414-13.351-15.34-23.67c-1.491-16.62,10.773-31.305,27.395-32.797c16.62-1.493,31.303,10.773,32.795,27.394"/>
	
		<line fill="none" stroke="#FFFFFF" stroke-width="4" stroke-miterlimit="10" x1="185.089" y1="134.778" x2="227.862" y2="226.003"/>
	<polyline fill="none" stroke="#FFFFFF" stroke-width="4" stroke-miterlimit="10" points="161.138,144.09 121.854,214.077 
		120.74,216.06 	"/>
	<circle fill="none" stroke="#FFFFFF" stroke-width="4" stroke-miterlimit="10" cx="236.215" cy="241.346" r="17.47"/>
	<circle fill="#FFFFFF" stroke="#FFFFFF" stroke-miterlimit="10" cx="236.215" cy="241.345" r="5.728"/>
	<path fill="none" stroke="#FFFFFF" stroke-width="4" stroke-miterlimit="10" d="M250.247,214.94
		c8.403,4.711,14.411,13.354,15.336,23.674c1.486,16.62-10.779,31.302-27.402,32.791c-16.622,1.487-31.302-10.78-32.791-27.403"/>
	<circle fill="none" stroke="#FFFFFF" stroke-width="4" stroke-miterlimit="10" cx="109.432" cy="241.346" r="17.47"/>
	<circle fill="#FFFFFF" stroke="#FFFFFF" stroke-miterlimit="10" cx="109.432" cy="241.345" r="5.728"/>
	<path fill="none" stroke="#FFFFFF" stroke-width="4" stroke-miterlimit="10" d="M122.793,214.614
		c8.509,4.516,14.714,13.018,15.877,23.313c1.87,16.582-10.054,31.543-26.639,33.415c-16.582,1.873-31.542-10.056-33.413-26.639"/>
	<line fill="none" stroke="#FFFFFF" stroke-width="4" stroke-miterlimit="10" x1="101.08" y1="226.003" x2="59.302" y2="136.908"/>
	
		<line fill="none" stroke="#FFFFFF" stroke-width="4" stroke-miterlimit="10" x1="289.399" y1="136.823" x2="251.855" y2="216.894"/>
</g>
</svg>
