<?xml version="1.0" encoding="utf-8"?>
<!-- Generator: Adobe Illustrator 16.0.0, SVG Export Plug-In . SVG Version: 6.00 Build 0)  -->
<!DOCTYPE svg PUBLIC "-//W3C//DTD SVG 1.1//EN" "http://www.w3.org/Graphics/SVG/1.1/DTD/svg11.dtd">
<svg version="1.1" id="Layer_1" xmlns="http://www.w3.org/2000/svg" xmlns:xlink="http://www.w3.org/1999/xlink" x="0px" y="0px"
	 width="350px" height="350px" viewBox="0 0 350 350" enable-background="new 0 0 350 350" xml:space="preserve">
<circle display="none" fill="none" stroke="#E0E0E0" stroke-width="3" stroke-miterlimit="10" cx="176.313" cy="175.637" r="150.971"/>
<path fill="none" stroke="#FFFFFF" stroke-width="4" stroke-miterlimit="10" d="M305.316,172.696"/>
<line fill="none" stroke="#FFFFFF" stroke-width="4" stroke-miterlimit="10" x1="45.412" y1="110.972" x2="301.438" y2="110.972"/>
<circle fill="none" stroke="#FFFFFF" stroke-width="4" stroke-miterlimit="10" cx="67.839" cy="86.395" r="6.848"/>
<circle fill="none" stroke="#FFFFFF" stroke-width="4" stroke-miterlimit="10" cx="94.611" cy="86.395" r="6.848"/>
<circle fill="none" stroke="#FFFFFF" stroke-width="4" stroke-miterlimit="10" cx="121.397" cy="86.395" r="6.848"/>
<path fill="none" stroke="#FFFFFF" stroke-width="4" stroke-miterlimit="10" d="M291.667,278.711H154.983H52.143
	c-3.717,0-6.731-3.015-6.731-6.732V71.115c0-3.717,3.013-6.73,6.731-6.73h242.082c3.719,0,6.731,3.013,6.731,6.73v198.552
	c0,0,0.083,3.166-2.789,5.833C294.747,278.676,291.667,278.711,291.667,278.711z"/>
<path fill="none" stroke="#03A9F4" stroke-width="4" stroke-miterlimit="10" d="M318.518,212.564"/>
<circle fill="none" stroke="#FFFFFF" stroke-width="4" stroke-miterlimit="10" cx="189.294" cy="188.5" r="43.019"/>
<ellipse fill="none" stroke="#FFFFFF" stroke-width="4" stroke-miterlimit="10" cx="189.295" cy="188.5" rx="18.708" ry="42.64"/>
<line fill="none" stroke="#FFFFFF" stroke-width="4" stroke-miterlimit="10" x1="153.236" y1="211.951" x2="225.353" y2="211.951"/>
<line fill="none" stroke="#FFFFFF" stroke-width="4" stroke-miterlimit="10" x1="149.889" y1="168.291" x2="227.277" y2="168.291"/>
<line fill="none" stroke="#FFFFFF" stroke-width="4" stroke-miterlimit="10" x1="146.275" y1="190.271" x2="230.886" y2="190.271"/>
<line fill="none" stroke="#FFFFFF" stroke-width="4" stroke-miterlimit="10" x1="92.863" y1="170.011" x2="139.683" y2="170.011"/>
<line fill="none" stroke="#FFFFFF" stroke-width="4" stroke-miterlimit="10" x1="107.167" y1="188.5" x2="128.479" y2="188.5"/>
<line fill="none" stroke="#FFFFFF" stroke-width="4" stroke-miterlimit="10" x1="76.947" y1="206.131" x2="139.813" y2="206.131"/>
</svg>
