<?xml version="1.0" encoding="utf-8"?>
<!-- Generator: Adobe Illustrator 16.0.0, SVG Export Plug-In . SVG Version: 6.00 Build 0)  -->
<!DOCTYPE svg PUBLIC "-//W3C//DTD SVG 1.1//EN" "http://www.w3.org/Graphics/SVG/1.1/DTD/svg11.dtd">
<svg version="1.1" id="Layer_1" xmlns="http://www.w3.org/2000/svg" xmlns:xlink="http://www.w3.org/1999/xlink" x="0px" y="0px"
	 width="350px" height="350px" viewBox="0 0 350 350" enable-background="new 0 0 350 350" xml:space="preserve">
<circle display="none" fill="none" stroke="#E0E0E0" stroke-width="3" stroke-miterlimit="10" cx="176.313" cy="175.637" r="150.971"/>
<g>
	<g>
		<path fill="none" stroke="#FFFFFF" stroke-width="4" stroke-miterlimit="10" d="M51.209,232.215
			c1.687,3.668,3.789,7.068,6.269,10.198"/>
		<path fill="none" stroke="#FFFFFF" stroke-width="4" stroke-miterlimit="10" stroke-dasharray="24.5879,14.343" d="
			M67.763,252.352c29.921,22.43,86.846,22.391,142.383-3.15c59.127-27.192,97.332-74.392,95.095-113.205"/>
		<path fill="none" stroke="#FFFFFF" stroke-width="4" stroke-miterlimit="10" d="M304.354,128.876
			c-0.764-3.919-1.978-7.729-3.664-11.396"/>
	</g>
</g>
<path fill="none" stroke="#FFFFFF" stroke-width="4" stroke-miterlimit="10" stroke-dasharray="24,14" d="M230.837,82.579
	c33.434,1.141,60.072,13.635,70.582,36.485"/>
<path fill="none" stroke="#FFFFFF" stroke-width="4" stroke-miterlimit="10" stroke-dasharray="24,14" d="M51.938,233.799
	c-18.901-41.097,21.596-100.012,90.546-131.722c17.028-7.831,34.186-13.265,50.656-16.389"/>
<path fill="none" stroke="#FFFFFF" stroke-width="4" stroke-miterlimit="10" d="M300.975,118.103
	c31.775,68.85,1.726,150.424-67.123,182.198C165,332.077,83.427,302.021,51.651,233.171C19.876,164.324,49.93,82.752,118.779,50.976
	C187.627,19.201,269.197,49.255,300.975,118.103z"/>
<path fill="none" stroke="#FFFFFF" stroke-width="4" stroke-miterlimit="10" d="M197.187,70.969
	c-26.659-21.976-55.826-30.416-79.199-19.628"/>
<path fill="none" stroke="#FFFFFF" stroke-width="4" stroke-miterlimit="10" d="M233.059,300.667
	c41.07-18.957,48.573-90.056,16.771-158.958c-7.774-16.844-17.172-31.986-27.534-44.974"/>
<path fill="#FFFFFF" stroke="#FFFFFF" stroke-width="4" stroke-miterlimit="10" d="M156.811,272.407
	c-3.18,8.631-12.753,13.05-21.384,9.868l0,0c-8.63-3.178-13.049-12.752-9.869-21.383l0,0c3.18-8.631,12.753-13.049,21.383-9.869l0,0
	C155.572,254.204,159.991,263.775,156.811,272.407L156.811,272.407z"/>
<path fill="none" stroke="#FFFFFF" stroke-width="4" stroke-miterlimit="10" d="M234.641,299.938
	c-41.072,18.955-100.041-21.465-131.844-90.371c-31.802-68.904-24.3-140,16.773-158.956"/>
<path fill="none" stroke="#FFFFFF" stroke-width="4" stroke-miterlimit="10" d="M224.391,89.719
	c-3.181,8.631-12.752,13.049-21.384,9.87l0,0c-8.631-3.18-13.049-12.752-9.868-21.384l0,0c3.18-8.631,12.752-13.049,21.383-9.87l0,0
	C223.152,71.516,227.57,81.088,224.391,89.719L224.391,89.719z"/>
</svg>
