<?xml version="1.0" encoding="utf-8"?>
<!-- Generator: Adobe Illustrator 16.0.0, SVG Export Plug-In . SVG Version: 6.00 Build 0)  -->
<!DOCTYPE svg PUBLIC "-//W3C//DTD SVG 1.1//EN" "http://www.w3.org/Graphics/SVG/1.1/DTD/svg11.dtd">
<svg version="1.1" id="Layer_1" xmlns="http://www.w3.org/2000/svg" xmlns:xlink="http://www.w3.org/1999/xlink" x="0px" y="0px"
	 width="350px" height="350px" viewBox="0 0 350 350" enable-background="new 0 0 350 350" xml:space="preserve">
<circle display="none" fill="none" stroke="#E0E0E0" stroke-width="3" stroke-miterlimit="10" cx="176.313" cy="175.637" r="150.971"/>
<path fill="none" stroke="#FFFFFF" stroke-width="4" stroke-miterlimit="10" d="M303.656,77.797
	c0,14.519-13.463,36.162-36.159,36.162c-19.972,0-36.162-16.19-36.162-36.162c0-19.97,16.19-36.161,36.162-36.161
	C287.467,41.637,303.656,57.827,303.656,77.797z"/>
<circle fill="none" stroke="#FFFFFF" stroke-width="4" stroke-miterlimit="10" cx="254.856" cy="226.799" r="25.349"/>
<path fill="none" stroke="#FFFFFF" stroke-width="4" stroke-miterlimit="10" stroke-dasharray="24,14" d="M244.069,70.439"/>
<path fill="none" stroke="#FFFFFF" stroke-width="4" stroke-miterlimit="10" stroke-dasharray="24,14" d="M132.44,80.866"/>
<path fill="none" stroke="#FFFFFF" stroke-width="4" stroke-miterlimit="10" stroke-dasharray="24,14" d="M271.771,207.922"/>
<path fill="none" stroke="#FFFFFF" stroke-width="4" stroke-miterlimit="10" stroke-dasharray="24,14" d="M286.239,108.986"/>
<line fill="none" stroke="#FFFFFF" stroke-width="4" stroke-miterlimit="10" stroke-dasharray="12,8" x1="157.763" y1="208.947" x2="139.562" y2="255.372"/>
<line fill="none" stroke="#FFFFFF" stroke-width="4" stroke-miterlimit="10" stroke-dasharray="12,8" x1="106.312" y1="103.589" x2="141.536" y2="136.677"/>
<line fill="none" stroke="#FFFFFF" stroke-width="4" stroke-miterlimit="10" x1="209.982" y1="193.411" x2="234.259" y2="212.027"/>
<line fill="none" stroke="#FFFFFF" stroke-width="4" stroke-miterlimit="10" x1="244.069" y1="103.589" x2="205.758" y2="139.375"/>
<circle fill="none" stroke="#FFFFFF" stroke-width="4" stroke-miterlimit="10" cx="266.901" cy="70.98" r="6.477"/>
<path fill="none" stroke="#FFFFFF" stroke-width="4" stroke-miterlimit="10" d="M254.856,91.578v-3.637
	c0-5.647,4.579-10.226,10.226-10.226h3.637c5.647,0,10.226,4.578,10.226,10.226v3.637"/>
<circle fill="none" stroke="#FFFFFF" stroke-width="4" stroke-miterlimit="10" cx="255.059" cy="219.7" r="5.633"/>
<path fill="none" stroke="#FFFFFF" stroke-width="4" stroke-miterlimit="10" d="M244.581,237.618v-3.164
	c0-4.913,3.983-8.894,8.896-8.894h3.164c4.912,0,8.895,3.98,8.895,8.894v3.164"/>
<circle fill="none" stroke="#FFFFFF" stroke-width="4" stroke-miterlimit="10" stroke-dasharray="12,8" cx="65.072" cy="217.053" r="20.438"/>
<circle fill="none" stroke="#FFFFFF" stroke-width="4" stroke-miterlimit="10" cx="65.235" cy="212.352" r="4.542"/>
<path fill="none" stroke="#FFFFFF" stroke-width="4" stroke-miterlimit="10" d="M56.788,226.8v-2.551
	c0-3.961,3.211-7.173,7.172-7.173h2.551c3.96,0,7.171,3.212,7.171,7.173v2.551"/>
<path fill="#FFFFFF" d="M128.341,251.39c-17.224,0-31.186,13.962-31.186,31.186c0,17.225,13.962,31.187,31.186,31.187
	s31.186-13.962,31.186-31.187C159.527,265.352,145.565,251.39,128.341,251.39z M128.627,267.365c3.577,0,6.477,2.899,6.477,6.477
	c0,3.576-2.9,6.477-6.477,6.477c-3.576,0-6.476-2.9-6.476-6.477C122.151,270.265,125.051,267.365,128.627,267.365z M140.671,294.44
	h-24.088v-3.637c0-5.648,4.579-10.226,10.226-10.226h3.637c5.647,0,10.226,4.577,10.226,10.226V294.44z"/>
<circle fill="none" stroke="#FFFFFF" stroke-width="4" stroke-miterlimit="10" cx="174.104" cy="167.27" r="43.603"/>
<circle fill="none" stroke="#FFFFFF" stroke-width="4" stroke-miterlimit="10" cx="174.39" cy="158.536" r="6.476"/>
<path fill="none" stroke="#FFFFFF" stroke-width="4" stroke-miterlimit="10" d="M162.345,179.135v-3.637
	c0-5.647,4.579-10.225,10.226-10.225h3.637c5.646,0,10.226,4.578,10.226,10.225v3.637"/>
<path fill="#FFFFFF" d="M97.155,67.711c-11.009,0-19.935,8.774-19.935,19.597c0,10.825,8.925,19.598,19.935,19.598
	s19.935-8.773,19.935-19.598C117.09,76.485,108.165,67.711,97.155,67.711z M97.245,76.803c2.692,0,4.875,2.146,4.875,4.792
	c0,2.647-2.183,4.793-4.875,4.793c-2.692,0-4.875-2.146-4.875-4.793C92.371,78.948,94.553,76.803,97.245,76.803z M106.312,96.839
	H88.179v-2.692c0-4.18,3.447-7.567,7.697-7.567h2.738c4.251,0,7.697,3.388,7.697,7.567V96.839z"/>
<line fill="none" stroke="#FFFFFF" stroke-width="4" stroke-miterlimit="10" x1="135.56" y1="187.66" x2="84.692" y2="213.374"/>
</svg>
