<?xml version="1.0" encoding="utf-8"?>
<!-- Generator: Adobe Illustrator 16.0.0, SVG Export Plug-In . SVG Version: 6.00 Build 0)  -->
<!DOCTYPE svg PUBLIC "-//W3C//DTD SVG 1.1//EN" "http://www.w3.org/Graphics/SVG/1.1/DTD/svg11.dtd">
<svg version="1.1" id="Layer_1" xmlns="http://www.w3.org/2000/svg" xmlns:xlink="http://www.w3.org/1999/xlink" x="0px" y="0px"
	 width="350px" height="350px" viewBox="0 0 350 350" enable-background="new 0 0 350 350" xml:space="preserve">
<circle display="none" fill="none" stroke="#E0E0E0" stroke-width="3" stroke-miterlimit="10" cx="176.313" cy="175.637" r="150.971"/>
<path fill="none" stroke="#FFFFFF" stroke-width="4" stroke-miterlimit="10" d="M245.884,240.09c0,4.58-3.714,8.294-8.295,8.294
	h-38.153c-4.581,0-8.295-3.714-8.295-8.294V113.484c0-4.581,3.714-8.294,8.295-8.294h38.153c4.581,0,8.295,3.714,8.295,8.294V240.09
	z"/>
<path fill="none" stroke="#FFFFFF" stroke-width="4" stroke-miterlimit="10" stroke-dasharray="14,8" d="M188.872,248.384h-36.57
	c-4.581,0-8.294-3.714-8.294-8.294v-85.592c0-4.581,3.714-8.294,8.294-8.294h38.154"/>
<path fill="none" stroke="#FFFFFF" stroke-width="4" stroke-miterlimit="10" stroke-dasharray="14,8" d="M137.681,248.384h-32.197
	c-4.581,0-8.294-3.714-8.294-8.294V180.1c0-4.581,3.714-8.294,8.294-8.294h38.154"/>
<circle fill="none" stroke="#FFFFFF" stroke-width="4" stroke-miterlimit="10" cx="176" cy="175.5" r="133.084"/>
</svg>
