<?xml version="1.0" encoding="utf-8"?>
<!-- Generator: Adobe Illustrator 16.0.0, SVG Export Plug-In . SVG Version: 6.00 Build 0)  -->
<!DOCTYPE svg PUBLIC "-//W3C//DTD SVG 1.1//EN" "http://www.w3.org/Graphics/SVG/1.1/DTD/svg11.dtd">
<svg version="1.1" id="Layer_1" xmlns="http://www.w3.org/2000/svg" xmlns:xlink="http://www.w3.org/1999/xlink" x="0px" y="0px"
	 width="350px" height="350px" viewBox="0 0 350 350" enable-background="new 0 0 350 350" xml:space="preserve">
<path fill="none" stroke="#FFFFFF" stroke-width="4" stroke-miterlimit="10" d="M315.596,189.438
	c-6.889,69.814-65.775,124.354-137.402,124.354c-42.264,0-80.092-18.989-105.42-48.902c-2.318-2.738-4.531-5.566-6.634-8.481"/>
<path fill="none" stroke="#FFFFFF" stroke-width="4" stroke-miterlimit="10" stroke-dasharray="20,10" d="M40.119,175.716
	c0-76.256,61.818-138.075,138.074-138.075c47.98,0,90.246,24.474,114.992,61.619"/>
<path fill="none" stroke="#FFFFFF" stroke-width="4" stroke-miterlimit="10" d="M163.33,223.234
	c-5.899,23.402,3.991,39.043,6.117,42.054l34.931,15.332c0,0-18.198-22.544-15.444-45.615c3.607-30.203,18.631-50.348,18.631-50.348
	l-67.499-29.81c0,0-22.271,23.043-29.525,49.405c-4.936,17.965-0.377,35.007-0.377,35.007l49.1,21.56
	C154.917,237.838,163.33,223.234,163.33,223.234z"/>
<polygon fill="none" stroke="#FFFFFF" stroke-width="4" stroke-miterlimit="10" points="212.723,177.838 142.967,146.782 
	149.488,131.705 219.244,162.761 "/>
<circle fill="none" stroke="#FFFFFF" stroke-width="4" stroke-miterlimit="10" cx="41.119" cy="188.25" r="11.25"/>
<polygon fill="none" stroke="#FFFFFF" stroke-width="4" stroke-miterlimit="10" points="311.67,87.355 312.386,110.53 
	313.101,133.705 292.673,122.737 272.245,111.77 291.958,99.562 "/>
<polygon fill="none" stroke="#FFFFFF" stroke-width="4" stroke-miterlimit="10" points="44.807,267.929 44.091,244.753 
	43.376,221.578 63.804,232.546 84.232,243.514 64.519,255.723 "/>
<polygon fill="none" stroke="#FFFFFF" stroke-width="4" stroke-miterlimit="10" points="184.206,137.896 190.792,141.264 
	216.833,87.355 210.247,83.986 "/>
</svg>
