<?xml version="1.0" encoding="utf-8"?>
<!-- Generator: Adobe Illustrator 16.0.0, SVG Export Plug-In . SVG Version: 6.00 Build 0)  -->
<!DOCTYPE svg PUBLIC "-//W3C//DTD SVG 1.1//EN" "http://www.w3.org/Graphics/SVG/1.1/DTD/svg11.dtd">
<svg version="1.1" id="Layer_1" xmlns="http://www.w3.org/2000/svg" xmlns:xlink="http://www.w3.org/1999/xlink" x="0px" y="0px"
	 width="350px" height="350px" viewBox="0 0 350 350" enable-background="new 0 0 350 350" xml:space="preserve">
<circle display="none" fill="none" stroke="#E0E0E0" stroke-width="3" stroke-miterlimit="10" cx="176.313" cy="175.637" r="150.971"/>
<polygon fill="none" stroke="#FFFFFF" stroke-width="4" stroke-miterlimit="10" points="155.164,169.574 116.46,191.918 
	77.757,169.574 77.757,124.882 116.46,102.537 155.164,124.882 "/>
<polygon fill="none" stroke="#FFFFFF" stroke-width="4" stroke-miterlimit="10" points="194.906,102.047 156.203,124.392 
	117.5,102.047 117.5,57.355 156.203,35.01 194.906,57.355 "/>
<polygon fill="none" stroke="#FFFFFF" stroke-width="4" stroke-miterlimit="10" points="232.639,167.726 193.936,190.069 
	155.232,167.726 155.232,123.034 193.936,100.688 232.639,123.034 "/>
<polyline fill="none" stroke="#FFFFFF" stroke-width="4" stroke-miterlimit="10" points="187.177,139.667 187.209,160.249 
	178.18,155.037 178.18,135.722 194.907,126.065 211.633,135.722 211.633,155.037 194.907,164.692 191.72,162.853 "/>
<polygon fill="none" stroke="#FFFFFF" stroke-width="4" stroke-miterlimit="10" points="271.589,235.886 232.886,258.229 
	194.182,235.886 194.182,191.193 232.886,168.848 271.589,191.193 "/>
<line fill="none" stroke="#FFFFFF" stroke-width="4" stroke-miterlimit="10" x1="77.757" y1="168.908" x2="77.757" y2="273.912"/>
<line fill="none" stroke="#FFFFFF" stroke-width="4" stroke-miterlimit="10" stroke-dasharray="14,8" x1="155.232" y1="137.567" x2="155.232" y2="242.571"/>
<line fill="none" stroke="#FFFFFF" stroke-width="4" stroke-miterlimit="10" stroke-dasharray="15,10" x1="116.46" y1="192.301" x2="116.46" y2="281.12"/>
<line fill="none" stroke="#FFFFFF" stroke-width="4" stroke-miterlimit="10" x1="194.293" y1="219.1" x2="194.102" y2="301.558"/>
<line fill="none" stroke="#FFFFFF" stroke-width="4" stroke-miterlimit="10" x1="232.886" y1="258.23" x2="232.886" y2="317.898"/>
<g>
	<path fill="#FFFFFF" d="M107.4,144.431l-3.57,0.645c-0.121-0.713-0.393-1.25-0.818-1.611s-0.978-0.541-1.656-0.541
		c-0.902,0-1.622,0.312-2.159,0.934c-0.537,0.623-0.805,1.665-0.805,3.125c0,1.624,0.272,2.771,0.818,3.441
		c0.545,0.67,1.278,1.005,2.197,1.005c0.687,0,1.25-0.196,1.688-0.586c0.438-0.391,0.748-1.063,0.928-2.017l3.557,0.606
		c-0.369,1.632-1.078,2.865-2.126,3.699c-1.048,0.833-2.453,1.25-4.214,1.25c-2.002,0-3.598-0.632-4.788-1.895
		c-1.19-1.263-1.785-3.011-1.785-5.245c0-2.26,0.597-4.019,1.792-5.277c1.194-1.259,2.809-1.888,4.846-1.888
		c1.667,0,2.992,0.359,3.976,1.076S106.97,142.961,107.4,144.431z"/>
	<path fill="#FFFFFF" d="M108.869,150.166l3.634-0.554c0.154,0.705,0.468,1.239,0.94,1.604c0.473,0.365,1.134,0.548,1.985,0.548
		c0.937,0,1.641-0.172,2.113-0.516c0.318-0.241,0.477-0.563,0.477-0.966c0-0.275-0.086-0.503-0.258-0.683
		c-0.18-0.172-0.584-0.331-1.211-0.477c-2.921-0.645-4.772-1.233-5.555-1.766c-1.083-0.739-1.624-1.766-1.624-3.08
		c0-1.186,0.468-2.182,1.405-2.99s2.388-1.211,4.356-1.211c1.873,0,3.265,0.305,4.175,0.915s1.538,1.512,1.882,2.707l-3.416,0.631
		c-0.146-0.533-0.423-0.941-0.831-1.225c-0.408-0.283-0.99-0.425-1.746-0.425c-0.954,0-1.637,0.133-2.049,0.4
		c-0.275,0.189-0.412,0.434-0.412,0.734c0,0.258,0.12,0.477,0.361,0.657c0.326,0.241,1.454,0.58,3.383,1.018
		c1.929,0.438,3.275,0.975,4.04,1.611c0.756,0.645,1.134,1.542,1.134,2.694c0,1.254-0.524,2.333-1.572,3.234
		c-1.048,0.902-2.599,1.354-4.652,1.354c-1.864,0-3.34-0.378-4.427-1.134S109.204,151.463,108.869,150.166z"/>
	<path fill="#FFFFFF" d="M123.548,150.166l3.634-0.554c0.154,0.705,0.468,1.239,0.94,1.604c0.473,0.365,1.134,0.548,1.985,0.548
		c0.937,0,1.641-0.172,2.113-0.516c0.318-0.241,0.477-0.563,0.477-0.966c0-0.275-0.086-0.503-0.258-0.683
		c-0.18-0.172-0.584-0.331-1.211-0.477c-2.921-0.645-4.772-1.233-5.554-1.766c-1.083-0.739-1.624-1.766-1.624-3.08
		c0-1.186,0.468-2.182,1.405-2.99s2.389-1.211,4.356-1.211c1.873,0,3.265,0.305,4.175,0.915c0.911,0.61,1.538,1.512,1.882,2.707
		l-3.415,0.631c-0.146-0.533-0.423-0.941-0.832-1.225c-0.408-0.283-0.99-0.425-1.746-0.425c-0.954,0-1.637,0.133-2.049,0.4
		c-0.275,0.189-0.412,0.434-0.412,0.734c0,0.258,0.12,0.477,0.361,0.657c0.326,0.241,1.454,0.58,3.383,1.018
		c1.929,0.438,3.275,0.975,4.04,1.611c0.756,0.645,1.134,1.542,1.134,2.694c0,1.254-0.524,2.333-1.572,3.234
		c-1.048,0.902-2.599,1.354-4.652,1.354c-1.864,0-3.34-0.378-4.427-1.134S123.883,151.463,123.548,150.166z"/>
</g>
<g>
	<path fill="#FFFFFF" d="M193.287,149.905l2.85-0.582c0.121,0.74,0.367,1.302,0.737,1.686c0.371,0.383,0.89,0.575,1.557,0.575
		c0.734,0,1.287-0.181,1.657-0.542c0.249-0.252,0.374-0.591,0.374-1.015c0-0.289-0.067-0.528-0.202-0.717
		c-0.142-0.181-0.458-0.348-0.95-0.501c-2.29-0.677-3.742-1.295-4.355-1.854c-0.849-0.776-1.273-1.854-1.273-3.235
		c0-1.246,0.367-2.292,1.102-3.141c0.734-0.848,1.873-1.272,3.416-1.272c1.469,0,2.561,0.321,3.274,0.961s1.206,1.588,1.476,2.842
		l-2.678,0.664c-0.115-0.56-0.332-0.988-0.652-1.286s-0.776-0.447-1.369-0.447c-0.748,0-1.283,0.14-1.607,0.42
		c-0.215,0.198-0.323,0.456-0.323,0.771c0,0.271,0.095,0.5,0.283,0.69c0.256,0.253,1.141,0.609,2.653,1.069
		c1.512,0.46,2.568,1.024,3.168,1.692c0.593,0.677,0.889,1.62,0.889,2.829c0,1.318-0.41,2.45-1.232,3.398
		c-0.822,0.947-2.038,1.421-3.648,1.421c-1.462,0-2.619-0.397-3.472-1.191C194.107,152.347,193.55,151.268,193.287,149.905z"/>
</g>
<g>
	<path fill="#FFFFFF" d="M133.863,86.799l-3.658-13.68h2.972l2.167,8.965l1.992-8.965h2.95l1.927,8.965l2.21-8.965h3.016
		l-3.712,13.68h-2.939l-1.992-8.798l-1.959,8.798H133.863z"/>
	<path fill="#FFFFFF" d="M151.205,86.799l-3.658-13.68h2.972l2.167,8.965l1.992-8.965h2.95l1.927,8.965l2.21-8.965h3.015
		l-3.712,13.68h-2.939l-1.992-8.798l-1.959,8.798H151.205z"/>
	<path fill="#FFFFFF" d="M168.546,86.799l-3.658-13.68h2.972l2.166,8.965l1.992-8.965h2.95l1.927,8.965l2.21-8.965h3.015
		l-3.712,13.68h-2.939l-1.992-8.798l-1.959,8.798H168.546z"/>
</g>
<g>
	<path fill="#FFFFFF" d="M215.48,219.704v-3.07h3.07v3.07H215.48z"/>
	<path fill="#FFFFFF" d="M220.464,219.704v-2.394l4.349-4.994c0.714-0.815,1.242-1.395,1.585-1.737
		c-0.357,0.022-0.827,0.036-1.41,0.044l-4.098,0.021v-2.546h9.595v2.175l-4.437,5.114l-1.563,1.693
		c0.852-0.051,1.38-0.076,1.584-0.076h4.754v2.699H220.464z"/>
	<path fill="#FFFFFF" d="M232.889,206.525v-2.842h3.07v2.842H232.889z M232.889,219.704v-11.605h3.07v11.605H232.889z"/>
	<path fill="#FFFFFF" d="M239.02,208.099h2.863v1.705c0.371-0.583,0.874-1.057,1.508-1.421s1.337-0.547,2.109-0.547
		c1.348,0,2.491,0.528,3.431,1.585c0.94,1.057,1.41,2.528,1.41,4.415c0,1.938-0.474,3.444-1.421,4.518
		c-0.947,1.076-2.095,1.613-3.442,1.613c-0.641,0-1.223-0.128-1.743-0.383c-0.521-0.255-1.068-0.692-1.645-1.312v5.847h-3.07
		V208.099z M242.058,213.705c0,1.304,0.259,2.267,0.775,2.891c0.518,0.622,1.147,0.934,1.891,0.934c0.714,0,1.308-0.285,1.781-0.858
		c0.474-0.57,0.711-1.509,0.711-2.813c0-1.217-0.244-2.12-0.732-2.71s-1.093-0.885-1.814-0.885c-0.75,0-1.373,0.289-1.868,0.869
		C242.305,211.71,242.058,212.568,242.058,213.705z"/>
</g>
</svg>
