<?xml version="1.0" encoding="utf-8"?>
<!-- Generator: Adobe Illustrator 16.0.0, SVG Export Plug-In . SVG Version: 6.00 Build 0)  -->
<!DOCTYPE svg PUBLIC "-//W3C//DTD SVG 1.1//EN" "http://www.w3.org/Graphics/SVG/1.1/DTD/svg11.dtd">
<svg version="1.1" id="Layer_1" xmlns="http://www.w3.org/2000/svg" xmlns:xlink="http://www.w3.org/1999/xlink" x="0px" y="0px"
	 width="350px" height="350px" viewBox="0 0 350 350" enable-background="new 0 0 350 350" xml:space="preserve">
<circle display="none" fill="none" stroke="#E0E0E0" stroke-width="3" stroke-miterlimit="10" cx="176.313" cy="175.637" r="150.971"/>
<polygon fill="none" stroke="#FFFFFF" stroke-width="4" stroke-miterlimit="10" points="229.418,128.919 229.418,250.427 
	140.553,234.682 140.553,97.123 214.152,112.869 "/>
<polygon fill="#FFFFFF" stroke="#FFFFFF" stroke-miterlimit="10" points="213.919,114.404 213.919,130.15 228.982,130.15 "/>
<polyline fill="none" stroke="#FFFFFF" stroke-width="4" stroke-miterlimit="10" points="177.738,105.079 177.738,75.494 
	251.336,91.241 266.603,107.291 266.603,228.798 229.418,222.21 "/>
<polygon fill="#FFFFFF" stroke="#FFFFFF" stroke-miterlimit="10" points="251.102,92.776 251.102,108.522 266.166,108.522 "/>
<polyline fill="none" stroke="#FFFFFF" stroke-width="4" stroke-miterlimit="10" points="214.249,76.519 214.249,61.061 
	287.85,76.808 303.113,92.856 303.113,214.365 303.113,217.87 167.695,304.549 73.411,284.387 73.411,202.234 "/>
<circle fill="none" stroke="#FFFFFF" stroke-width="4" stroke-miterlimit="10" stroke-dasharray="20,10" cx="73.411" cy="168.649" r="33.621"/>
<line fill="none" stroke="#FFFFFF" stroke-width="4" stroke-miterlimit="10" x1="156.37" y1="152.146" x2="205.77" y2="162.207"/>
<line fill="none" stroke="#FFFFFF" stroke-width="4" stroke-miterlimit="10" x1="156.37" y1="177.472" x2="205.77" y2="187.53"/>
<line fill="none" stroke="#FFFFFF" stroke-width="4" stroke-miterlimit="10" x1="156.37" y1="202.893" x2="205.77" y2="212.951"/>
<line fill="none" stroke="#FFFFFF" stroke-width="4" stroke-miterlimit="10" x1="230.333" y1="194.214" x2="253.107" y2="198.851"/>
<line fill="none" stroke="#FFFFFF" stroke-width="4" stroke-miterlimit="10" x1="229.416" y1="166.854" x2="253.107" y2="171.678"/>
<line fill="none" stroke="#FFFFFF" stroke-width="4" stroke-miterlimit="10" x1="229.416" y1="140.579" x2="253.107" y2="145.402"/>
<path fill="none" stroke="#FFFFFF" stroke-width="4" stroke-miterlimit="10" d="M218.743,200.263"/>
<polyline fill="none" stroke="#FFFFFF" stroke-width="4" stroke-miterlimit="10" points="57.73,172.45 67.481,182.199 
	93.24,156.442 "/>
</svg>
