<?xml version="1.0" encoding="utf-8"?>
<!-- Generator: Adobe Illustrator 16.0.0, SVG Export Plug-In . SVG Version: 6.00 Build 0)  -->
<!DOCTYPE svg PUBLIC "-//W3C//DTD SVG 1.1//EN" "http://www.w3.org/Graphics/SVG/1.1/DTD/svg11.dtd">
<svg version="1.1" id="phone" xmlns="http://www.w3.org/2000/svg" xmlns:xlink="http://www.w3.org/1999/xlink" x="0px" y="0px"
	 width="345px" height="667.093px" viewBox="0 0 345 667.093" enable-background="new 0 0 345 667.093" xml:space="preserve">
<path fill="none" stroke="#FFFFFF" stroke-width="1.5" stroke-miterlimit="10" d="M179.316,44.951
	c-1.344,3.326-5.129,4.934-8.458,3.59c-3.324-1.344-4.932-5.129-3.588-8.456c1.342-3.326,5.129-4.933,8.457-3.59
	C179.053,37.84,180.66,41.625,179.316,44.951z"/>
<path fill="none" stroke="#FFFFFF" stroke-width="1.5" stroke-miterlimit="10" d="M176.951,43.997
	c-0.816,2.021-3.115,2.997-5.137,2.18c-2.021-0.815-2.996-3.116-2.18-5.136c0.814-2.021,3.115-2.997,5.136-2.181
	C176.791,39.676,177.768,41.976,176.951,43.997z"/>
<path fill="none" stroke="#FFFFFF" stroke-width="1.5" stroke-miterlimit="10" d="M128.912,63.041
	c-0.304,0.752-1.156,1.114-1.906,0.811s-1.112-1.157-0.809-1.908c0.303-0.75,1.155-1.111,1.905-0.809
	C128.854,61.438,129.215,62.292,128.912,63.041z"/>
<path fill="none" stroke="#FFFFFF" stroke-width="1.5" stroke-miterlimit="10" d="M331.627,620.138c0,18.777-15.223,34-34,34H50.48
	c-18.777,0-34-15.223-34-34V43.515c0-18.778,15.223-34,34-34h247.146c18.777,0,34,15.222,34,34L331.627,620.138L331.627,620.138z"/>
<path fill="none" stroke="#FFFFFF" stroke-width="1.5" stroke-miterlimit="10" d="M326.533,610.82c0,18.17-14.73,32.9-32.9,32.9
	H54.476c-18.171,0-32.901-14.73-32.901-32.9V52.834c0-18.171,14.73-32.901,32.901-32.901h239.157c18.17,0,32.9,14.73,32.9,32.901
	V610.82z"/>
<path fill="none" stroke="#FFFFFF" stroke-width="1.5" stroke-miterlimit="10" d="M205.781,62.494c0-0.628-0.328-1.136-0.732-1.136
	h-61.035c-0.404,0-0.732,0.508-0.732,1.136l0,0c0,0.627,0.328,1.136,0.732,1.136h61.035C205.453,63.63,205.781,63.12,205.781,62.494
	L205.781,62.494z"/>
<path fill="none" stroke="#FFFFFF" stroke-width="1.5" stroke-miterlimit="10" d="M319.195,575.517H28.912V79.974h290.283V575.517
	L319.195,575.517z"/>
<path fill="none" stroke="#FFFFFF" stroke-width="1.5" stroke-miterlimit="10" d="M194.297,608.976
	c0,11.182-9.064,20.244-20.244,20.244s-20.242-9.063-20.242-20.244c0-11.18,9.063-20.242,20.242-20.242
	C185.232,588.734,194.297,597.796,194.297,608.976z"/>
<path fill="none" stroke="#FCFCFC" stroke-width="1.5" stroke-miterlimit="10" d="M198.421,608.976
	c0,13.457-10.909,24.367-24.366,24.367c-13.458,0-24.368-10.91-24.368-24.367s10.909-24.365,24.368-24.365
	C187.512,584.609,198.421,595.519,198.421,608.976z"/>
<path fill="none" stroke="#FCFCFC" stroke-miterlimit="10" d="M326.58,592.509l4.094,1v-6.824l-4.094-1V592.509z"/>
<path fill="none" stroke="#FCFCFC" stroke-miterlimit="10" d="M21.575,585.685l-4.094,1v6.824l4.094-1V585.685z"/>
<path fill="none" stroke="#FCFCFC" stroke-miterlimit="10" d="M21.574,64.682l-4.094-1v6.825l4.094,1V64.682z"/>
<path fill="none" stroke="#FCFCFC" stroke-miterlimit="10" d="M16.48,89.219l-2.953,1.661v25.734l2.953,1.771V89.219z"/>
<path fill="none" stroke="#FCFCFC" stroke-miterlimit="10" d="M331.525,133.002l2.95-1.661V98.324l-2.95-1.772V133.002z"/>
<path fill="none" stroke="#FCFCFC" stroke-miterlimit="10" d="M16.48,149.395l-2.953,1.661v37.577l2.953,1.772V149.395z"/>
<path fill="none" stroke="#FCFCFC" stroke-miterlimit="10" d="M16.48,206.074l-2.953,1.661v37.577l2.953,1.772V206.074z"/>
<path fill="none" stroke="#FCFCFC" stroke-miterlimit="10" d="M326.58,64.682l4.094-1v6.825l-4.094,1V64.682z"/>
<path fill="none" d="M174.055,587.111c12.078,0,21.868,9.789,21.868,21.867s-9.79,21.867-21.868,21.867
	c-12.077,0-21.868-9.789-21.868-21.867S161.978,587.111,174.055,587.111z"/>
<path fill="none" stroke="#FCFCFC" stroke-miterlimit="10" d="M21.574,51.713c0,0,2.863-10.729,11.053-18.146
	c8.068-7.306,19.738-8.096,19.738-8.096h120.928h121.343c0,0,13.065,0.216,22.271,9.421c8.875,8.875,9.83,22.679,9.83,22.679"/>
<path fill="none" stroke="#FCFCFC" stroke-miterlimit="10" d="M326.736,605.879c0,0-0.955,13.804-9.83,22.679
	c-9.205,9.206-22.271,9.422-22.271,9.422H173.293H52.365c0,0-11.669-0.79-19.738-8.096c-8.19-7.417-11.053-18.146-11.053-18.146"/>
</svg>
