<svg version="1.1" class="svg" id="git2" xmlns="http://www.w3.org/2000/svg" xmlns:xlink="http://www.w3.org/1999/xlink" x="0px" y="0px" width="90px" height="90px" viewBox="0 0 100 100" enable-background="new 0 0 100 100" xml:space="preserve">
				<circle class="git-circle" fill="#ffffff" cx="50.109" cy="50.06" r="41.141"/>
				<g>
					<path class="git-background" fill="#9A9A9A" d="M48.451,69.348v1.266l-1.43,0.368c0.261,0.409,0.392,0.866,0.392,1.373c0,0.98-0.342,1.744-1.025,2.292
						s-1.633,0.821-2.848,0.821l-0.449-0.024l-0.368-0.041c-0.256,0.196-0.384,0.414-0.384,0.653c0,0.36,0.458,0.54,1.373,0.54h1.552	c1.002,0,1.767,0.215,2.292,0.646c0.525,0.43,0.788,1.063,0.788,1.896c0,1.067-0.445,1.896-1.336,2.484s-2.169,0.882-3.836,0.882
						c-1.274,0-2.249-0.222-2.921-0.665c-0.673-0.444-1.009-1.067-1.009-1.868c0-0.55,0.172-1.011,0.515-1.381
						c0.344-0.37,0.847-0.634,1.512-0.792c-0.256-0.108-0.479-0.288-0.67-0.535c-0.19-0.248-0.286-0.511-0.286-0.789
						c0-0.349,0.101-0.639,0.303-0.87c0.201-0.231,0.493-0.459,0.874-0.683c-0.479-0.206-0.859-0.539-1.14-0.996
						c-0.281-0.458-0.421-0.998-0.421-1.619c0-0.996,0.324-1.767,0.973-2.313c0.648-0.544,1.574-0.816,2.778-0.816
						c0.256,0,0.56,0.023,0.911,0.069c0.351,0.046,0.576,0.08,0.674,0.103H48.451z M41.399,79.774c0,0.343,0.165,0.613,0.495,0.809
						c0.33,0.196,0.791,0.295,1.385,0.295c0.893,0,1.593-0.123,2.1-0.368c0.506-0.245,0.76-0.581,0.76-1.005
						c0-0.344-0.15-0.58-0.449-0.711c-0.3-0.131-0.763-0.196-1.39-0.196h-1.291c-0.458,0-0.84,0.107-1.148,0.322
						C41.553,79.136,41.399,79.42,41.399,79.774z M42.306,72.338c0,0.495,0.113,0.888,0.339,1.177c0.226,0.289,0.57,0.433,1.034,0.433
						c0.468,0,0.812-0.144,1.029-0.433s0.327-0.682,0.327-1.177c0-1.101-0.452-1.65-1.356-1.65
						C42.764,70.688,42.306,71.237,42.306,72.338z"/>
					<path fill="#9A9A9A" d="M49.849,66.985c0-0.812,0.452-1.218,1.356-1.218c0.903,0,1.356,0.406,1.356,1.218
						c0,0.387-0.112,0.688-0.339,0.903s-0.565,0.322-1.018,0.322C50.301,68.211,49.849,67.803,49.849,66.985z M52.447,78.483h-2.492
						v-9.136h2.492V78.483z"/>
					<path fill="#9A9A9A" d="M58.911,76.661c0.436,0,0.959-0.096,1.568-0.286v1.854c-0.621,0.278-1.384,0.417-2.287,0.417
						c-0.998,0-1.723-0.252-2.179-0.756c-0.455-0.504-0.683-1.26-0.683-2.268v-4.404h-1.192v-1.055l1.372-0.833l0.721-1.929h1.593v1.945
						h2.558v1.871h-2.558v4.404c0,0.354,0.1,0.615,0.298,0.784C58.321,76.577,58.584,76.661,58.911,76.661z"/>
				</g>
				<path fill-rule="evenodd" clip-rule="evenodd" fill="#F05033" d="M72.685,37.256c1.101,1.101,1.101,2.887,0,3.988l-20.941,20.94
					c-1.101,1.101-2.886,1.101-3.987,0l-20.939-20.94c-1.102-1.101-1.102-2.887,0-3.988l20.939-20.939c1.102-1.101,2.887-1.101,3.987,0
					L72.685,37.256z"/>
				<g>
					<g>
						<line class="git-line1" fill="none" stroke="#FFFFFF" stroke-width="3" stroke-miterlimit="10" x1="41.666" y1="21.75" x2="59.764" y2="39.848"/>
						<g>
							<circle fill="#FFFFFF" cx="59.625" cy="39.708" r="3.948"/>
						</g>
					</g>
				</g>
				<g>
					<g>
						<line class="git-line2" fill="none" stroke="#FFFFFF" stroke-width="3" stroke-miterlimit="10" x1="50.109" y1="30.192" x2="50.109" y2="49.702"/>
						<g>
							<circle fill="#FFFFFF" cx="50.109" cy="49.533" r="3.384"/>
						</g>
					</g>
				</g>
				</svg>